<?xml version="1.0" encoding="utf-8"?>
<!-- Generator: Adobe Illustrator 25.0.0, SVG Export Plug-In . SVG Version: 6.00 Build 0)  -->
<svg version="1.1" id="Capa_1" xmlns="http://www.w3.org/2000/svg" xmlns:xlink="http://www.w3.org/1999/xlink" x="0px" y="0px"
	 viewBox="0 0 308.5 308.5" style="enable-background:new 0 0 308.5 308.5;" xml:space="preserve">
<style type="text/css">
	.st0{fill:#FFFA43;}
	.st1{fill:#FFFFFF;}
</style>
<circle class="st0" cx="154.3" cy="154.3" r="149"/>
<g>
	<path d="M223.3,190.4c18.1,0,32.8-14.7,32.8-32.8s-14.7-32.8-32.8-32.8s-32.9,14.7-32.9,32.8C190.4,175.7,205.1,190.4,223.3,190.4z
		"/>
	<circle cx="85.2" cy="157.6" r="32.8"/>
	<g>
		<circle class="st1" cx="229.8" cy="147.7" r="13.1"/>
		<circle class="st1" cx="206.8" cy="170.7" r="6.6"/>
		<circle class="st1" cx="91.8" cy="147.7" r="13.1"/>
		<circle class="st1" cx="68.8" cy="170.7" r="6.6"/>
	</g>
	<path d="M154.3,308.5c41.2,0,79.9-16,109.1-45.2s45.2-67.8,45.2-109.1s-16-79.9-45.2-109.1S195.5,0,154.3,0S74.3,16,45.2,45.2
		S0,113,0,154.3s16,79.9,45.2,109.1S113,308.5,154.3,308.5z M154.3,12.7c78,0,141.6,63.5,141.6,141.6s-63.5,141.6-141.6,141.6
		S12.7,232.3,12.7,154.3S76.2,12.7,154.3,12.7z"/>
	<path d="M82.1,104.9L82.1,104.9c-0.3-4-4.2-6.7-8.1-5.5c-5.8,1.7-11,4.7-15.3,8.9c-2.9,2.8-2.5,7.5,0.8,9.8l0,0
		c2.4,1.7,5.8,1.5,7.9-0.6c2.9-2.8,6.4-4.9,10.3-6C80.5,110.7,82.3,107.9,82.1,104.9z"/>
	<path d="M249,118L249,118c3.3-2.3,3.7-7,0.8-9.8c-4.3-4.1-9.6-7.2-15.3-8.9c-3.8-1.1-7.8,1.6-8.1,5.6v0c-0.3,3,1.6,5.7,4.4,6.6
		c3.9,1.1,7.4,3.2,10.3,6C243.3,119.5,246.6,119.7,249,118z"/>
	<path d="M103,215.8c-0.9,1-1.5,1.7-2.1,2.2c-1.5,1.2-2.4,3-2.4,5v0c0,5.3,6.2,8.4,10.3,5c1.5-1.2,2.7-2.6,3.7-3.7
		c2.2-2.5,2.9-3.1,4.6-3.1c1.6,0,2.3,0.6,4.6,3.1c2.6,2.9,6.5,7.4,14,7.4s11.4-4.4,14-7.4c2.2-2.5,2.9-3.1,4.6-3.1
		c1.6,0,2.3,0.6,4.6,3.1c2.6,2.9,6.5,7.4,14.1,7.4c7.5,0,11.4-4.4,14-7.4c2.2-2.5,2.9-3.1,4.6-3.1c1.6,0,2.3,0.6,4.5,3.1
		c1,1.1,2.2,2.5,3.7,3.7c4.1,3.4,10.3,0.3,10.3-5v0c0-1.9-0.9-3.8-2.4-5c-0.6-0.5-1.3-1.2-2.1-2.1c-2.6-2.9-6.5-7.4-14-7.4
		c-7.5,0-11.5,4.4-14.1,7.4c-2.2,2.5-2.9,3.1-4.6,3.1s-2.3-0.6-4.6-3.1c-2.6-2.9-6.5-7.4-14-7.4s-11.4,4.4-14,7.4
		c-2.2,2.5-2.9,3.1-4.6,3.1c-1.6,0-2.3-0.6-4.6-3.1c-2.6-2.9-6.5-7.4-14.1-7.4C109.5,208.4,105.6,212.8,103,215.8z"/>
</g>
</svg>
