<?xml version="1.0" encoding="utf-8"?>
<!-- Generator: Adobe Illustrator 25.0.0, SVG Export Plug-In . SVG Version: 6.00 Build 0)  -->
<svg version="1.1" id="Слой_1" xmlns="http://www.w3.org/2000/svg" xmlns:xlink="http://www.w3.org/1999/xlink" x="0px" y="0px"
	 viewBox="0 0 183 36" style="enable-background:new 0 0 183 36;" xml:space="preserve">
<style type="text/css">
	.st0{fill-rule:evenodd;clip-rule:evenodd;fill:#FFFFFF;}
	.st1{fill:#FFFFFF;}
</style>
<g>
	<path class="st0" d="M8.9,16.7c-0.2-1.4,1-2.5,2.4-2.5h5.1c1.4,0,2.5,1.2,2.9,2.5c0.3,0.9,0.7,1.8,1.2,2.5c0,0.1,0.1,0.1,0.1,0.2
		c0,0,0,0.1,0.1,0.1c1.6,2.2,4.2,3.6,7.2,3.6c4.1,0,7.5-2.7,8.6-6.4c0.4-1.4,1.5-2.5,2.9-2.5h5.1c1.4,0,2.6,1.2,2.4,2.5
		c-1.2,9.4-9.3,16.6-19,16.6c-1.6,0-3.2-0.2-4.7-0.6c-1.1-0.3-2.3-0.2-3.3,0.4c-2.8,1.4-5.9,2.4-8.6,2.8c-1.3,0.2-2.3-0.8-2.5-2
		c0-0.2,0-0.5,0-0.7l1.8-9c0.2-0.8,0-1.7-0.3-2.5C9.6,20.1,9.2,18.4,8.9,16.7z"/>
	<path class="st1" d="M7.5,5.2c0-2.8,2.3-5.1,5.1-5.1l0,0c2.8,0,5.1,2.3,5.1,5.1l0,0c0,2.8-2.3,5.1-5.1,5.1l0,0
		C9.8,10.3,7.5,8,7.5,5.2L7.5,5.2z"/>
	<path class="st1" d="M38.1,5.2c0-2.8,2.3-5.1,5.1-5.1l0,0c2.8,0,5.1,2.3,5.1,5.1l0,0c0,2.8-2.3,5.1-5.1,5.1l0,0
		C40.4,10.3,38.1,8,38.1,5.2L38.1,5.2z"/>
	<path class="st1" d="M76,28.9c-0.4,0.3-0.9,0.6-1.7,0.7c-0.7,0.2-1.6,0.3-2.5,0.3c-1.1,0-2-0.1-2.8-0.4c-0.8-0.3-1.3-0.7-1.6-1.3
		c-0.2-0.5-0.5-1.1-0.9-1.9c-0.3-0.9-0.7-1.8-1.1-2.8c-0.4-1-0.8-2.2-1.2-3.3c-0.4-1.2-0.8-2.4-1.2-3.5c-0.4-1.2-0.7-2.3-1-3.3
		c-0.3-1.1-0.5-2-0.7-2.8c0.4-0.4,0.9-0.7,1.5-1C63.7,9.1,64.4,9,65.1,9c0.9,0,1.7,0.2,2.3,0.6c0.6,0.4,1.1,1.1,1.4,2.2l1.6,6.3
		c0.3,1.2,0.6,2.4,0.9,3.4c0.3,1,0.5,1.8,0.6,2.3h0.2c0.5-2,1.1-4.3,1.6-6.8c0.6-2.5,1.1-4.9,1.5-7.3c0.5-0.2,1-0.4,1.5-0.6
		C77.4,9,78,9,78.5,9c0.9,0,1.7,0.2,2.4,0.6c0.7,0.4,1,1.1,1,2.1c0,0.4-0.1,1.1-0.3,1.9c-0.2,0.8-0.4,1.8-0.8,2.8
		c-0.3,1-0.7,2.2-1.1,3.3c-0.4,1.2-0.8,2.3-1.3,3.5c-0.4,1.1-0.9,2.2-1.3,3.2C76.7,27.5,76.3,28.3,76,28.9z"/>
	<path class="st1" d="M87.6,3.8c0-1,0.3-1.9,1-2.6c0.7-0.7,1.6-1.1,2.8-1.1c1.1,0,2,0.4,2.7,1.1c0.7,0.7,1.1,1.6,1.1,2.6
		s-0.4,1.9-1.1,2.6c-0.7,0.7-1.6,1.1-2.7,1.1c-1.1,0-2.1-0.4-2.8-1.1C88,5.7,87.6,4.8,87.6,3.8z M94.9,29.4
		c-0.3,0.1-0.7,0.1-1.3,0.2c-0.6,0.1-1.2,0.2-1.7,0.2c-0.6,0-1.1,0-1.6-0.1c-0.5-0.1-0.9-0.2-1.2-0.5c-0.3-0.2-0.6-0.6-0.8-1
		c-0.2-0.4-0.2-1-0.2-1.7V9.7c0.3-0.1,0.7-0.1,1.3-0.2c0.6-0.1,1.2-0.2,1.8-0.2c0.6,0,1.1,0,1.6,0.1c0.5,0.1,0.9,0.2,1.2,0.5
		c0.3,0.2,0.6,0.6,0.7,1c0.2,0.4,0.3,1,0.3,1.7V29.4z"/>
	<path class="st1" d="M115.3,28.9c-0.4,0.3-0.9,0.6-1.7,0.7c-0.7,0.2-1.6,0.3-2.5,0.3c-1.1,0-2-0.1-2.8-0.4
		c-0.8-0.3-1.3-0.7-1.6-1.3c-0.2-0.5-0.5-1.1-0.9-1.9c-0.3-0.9-0.7-1.8-1.1-2.8c-0.4-1-0.8-2.2-1.2-3.3c-0.4-1.2-0.8-2.4-1.2-3.5
		c-0.4-1.2-0.7-2.3-1-3.3c-0.3-1.1-0.5-2-0.7-2.8c0.4-0.4,0.9-0.7,1.5-1c0.7-0.3,1.4-0.5,2.1-0.5c0.9,0,1.7,0.2,2.3,0.6
		c0.6,0.4,1.1,1.1,1.4,2.2l1.6,6.3c0.3,1.2,0.6,2.4,0.9,3.4c0.3,1,0.5,1.8,0.6,2.3h0.2c0.5-2,1.1-4.3,1.6-6.8s1.1-4.9,1.5-7.3
		c0.5-0.2,1-0.4,1.5-0.6c0.6-0.1,1.2-0.2,1.7-0.2c0.9,0,1.7,0.2,2.4,0.6c0.7,0.4,1,1.1,1,2.1c0,0.4-0.1,1.1-0.3,1.9
		c-0.2,0.8-0.4,1.8-0.8,2.8c-0.3,1-0.7,2.2-1.1,3.3c-0.4,1.2-0.8,2.3-1.3,3.5c-0.4,1.1-0.9,2.2-1.3,3.2
		C116,27.5,115.7,28.3,115.3,28.9z"/>
	<path class="st1" d="M127,3.8c0-1,0.3-1.9,1-2.6c0.7-0.7,1.6-1.1,2.8-1.1c1.1,0,2,0.4,2.7,1.1c0.7,0.7,1.1,1.6,1.1,2.6
		s-0.4,1.9-1.1,2.6c-0.7,0.7-1.6,1.1-2.7,1.1c-1.1,0-2.1-0.4-2.8-1.1C127.3,5.7,127,4.8,127,3.8z M134.2,29.4
		c-0.3,0.1-0.7,0.1-1.3,0.2c-0.6,0.1-1.2,0.2-1.7,0.2c-0.6,0-1.1,0-1.6-0.1c-0.5-0.1-0.9-0.2-1.2-0.5c-0.3-0.2-0.6-0.6-0.8-1
		c-0.2-0.4-0.2-1-0.2-1.7V9.7c0.3-0.1,0.7-0.1,1.3-0.2c0.6-0.1,1.2-0.2,1.8-0.2c0.6,0,1.1,0,1.6,0.1c0.5,0.1,0.9,0.2,1.2,0.5
		c0.3,0.2,0.6,0.6,0.7,1c0.2,0.4,0.3,1,0.3,1.7V29.4z"/>
	<path class="st1" d="M140.6,19.4c0-1.8,0.3-3.4,0.8-4.7c0.5-1.3,1.3-2.5,2.2-3.3c1-0.9,2.1-1.5,3.4-1.9c1.3-0.4,2.7-0.7,4.2-0.7
		c0.5,0,1.1,0.1,1.6,0.2c0.5,0.1,0.9,0.2,1.3,0.3V2.6c0.3-0.1,0.7-0.2,1.3-0.2c0.6-0.1,1.2-0.2,1.8-0.2c0.6,0,1.1,0,1.6,0.1
		c0.5,0.1,0.9,0.2,1.2,0.5c0.3,0.2,0.6,0.6,0.7,1c0.2,0.4,0.2,1,0.2,1.7V25c0,1.3-0.6,2.3-1.8,3.1c-0.8,0.5-1.8,1-3,1.4
		c-1.2,0.4-2.7,0.6-4.3,0.6c-1.8,0-3.3-0.2-4.8-0.7c-1.4-0.5-2.6-1.2-3.5-2.1c-0.9-0.9-1.7-2-2.2-3.3
		C140.8,22.5,140.6,21,140.6,19.4z M152.1,14.2c-1.5,0-2.6,0.4-3.4,1.3c-0.8,0.9-1.2,2.1-1.2,3.9c0,1.7,0.4,3,1.1,3.9
		c0.7,0.9,1.8,1.3,3.2,1.3c0.5,0,0.9-0.1,1.3-0.2c0.4-0.2,0.7-0.3,0.9-0.5v-9.1C153.5,14.4,152.9,14.2,152.1,14.2z"/>
	<path class="st1" d="M167.9,3.8c0-1,0.3-1.9,1-2.6c0.7-0.7,1.6-1.1,2.8-1.1c1.1,0,2,0.4,2.7,1.1c0.7,0.7,1.1,1.6,1.1,2.6
		s-0.4,1.9-1.1,2.6c-0.7,0.7-1.6,1.1-2.7,1.1c-1.1,0-2.1-0.4-2.8-1.1C168.3,5.7,167.9,4.8,167.9,3.8z M175.2,29.4
		c-0.3,0.1-0.7,0.1-1.3,0.2c-0.6,0.1-1.2,0.2-1.7,0.2c-0.6,0-1.1,0-1.6-0.1c-0.5-0.1-0.9-0.2-1.2-0.5c-0.3-0.2-0.6-0.6-0.8-1
		c-0.2-0.4-0.2-1-0.2-1.7V9.7c0.3-0.1,0.7-0.1,1.3-0.2c0.6-0.1,1.2-0.2,1.8-0.2c0.6,0,1.1,0,1.6,0.1c0.5,0.1,0.9,0.2,1.2,0.5
		c0.3,0.2,0.6,0.6,0.7,1c0.2,0.4,0.3,1,0.3,1.7V29.4z"/>
</g>
</svg>
