<?xml version="1.0" encoding="utf-8"?>
<!-- Generator: Adobe Illustrator 25.0.0, SVG Export Plug-In . SVG Version: 6.00 Build 0)  -->
<svg version="1.1" id="Слой_1" xmlns="http://www.w3.org/2000/svg" xmlns:xlink="http://www.w3.org/1999/xlink" x="0px" y="0px"
	 viewBox="0 0 183 36" style="enable-background:new 0 0 183 36;" xml:space="preserve">
<style type="text/css">
	.st0{fill-rule:evenodd;clip-rule:evenodd;fill:#B5B1BC;}
	.st1{fill:#B5B1BC;}
</style>
<path class="st0" d="M1.5,16.7c-0.2-1.4,1-2.6,2.4-2.6h5.2c1.4,0,2.6,1.2,3,2.5c0.3,0.9,0.7,1.8,1.2,2.5c0,0.1,0.1,0.1,0.1,0.2
	c0,0,0,0.1,0.1,0.1c1.7,2.2,4.3,3.6,7.3,3.6c4.1,0,7.6-2.7,8.7-6.5c0.4-1.4,1.5-2.5,3-2.5h5.2c1.4,0,2.6,1.2,2.4,2.6
	c-1.3,9.4-9.4,16.7-19.3,16.7c-1.6,0-3.2-0.2-4.8-0.6c-1.1-0.3-2.4-0.2-3.4,0.4c-2.8,1.4-6,2.4-8.7,2.8c-1.3,0.2-2.4-0.8-2.6-2
	c0-0.2,0-0.5,0-0.7l1.8-9c0.2-0.8,0-1.7-0.3-2.5C2.2,20.1,1.7,18.4,1.5,16.7z"/>
<path class="st1" d="M0,5.1C0,2.3,2.3,0,5.2,0c2.9,0,5.2,2.3,5.2,5.1s-2.3,5.1-5.2,5.1C2.3,10.3,0,8,0,5.1z"/>
<path class="st1" d="M31.2,5.1c0-2.8,2.3-5.1,5.2-5.1c2.9,0,5.2,2.3,5.2,5.1s-2.3,5.1-5.2,5.1C33.5,10.3,31.2,8,31.2,5.1z"/>
<path class="st1" d="M54.1,10.8c0-1.3,0.2-2.4,0.6-3.3c0.5-0.9,1.1-1.7,1.8-2.2c0.8-0.6,1.6-1,2.7-1.3c1-0.3,2.1-0.4,3.3-0.4
	c1.9,0,3.3,0.2,4.1,0.7c0.9,0.5,1.3,1.3,1.3,2.5c0,0.5-0.1,0.9-0.3,1.3c-0.2,0.4-0.4,0.7-0.7,0.9c-0.5-0.1-1-0.2-1.5-0.3
	c-0.5-0.1-1.1-0.1-1.8-0.1c-1.1,0-1.9,0.2-2.5,0.6c-0.6,0.3-0.9,1-0.9,1.9v1.2h6.2c0.2,0.3,0.3,0.6,0.4,1c0.2,0.4,0.2,0.8,0.2,1.3
	c0,0.9-0.2,1.5-0.6,1.9c-0.4,0.4-0.9,0.6-1.6,0.6h-4.4V29c-0.3,0.1-0.7,0.1-1.2,0.2c-0.5,0.1-1.1,0.1-1.7,0.1c-0.6,0-1.1,0-1.5-0.1
	c-0.4-0.1-0.8-0.2-1.1-0.4c-0.3-0.2-0.5-0.5-0.7-0.9c-0.2-0.4-0.2-0.9-0.2-1.5V10.8z"/>
<path class="st1" d="M76,29c-0.3,0.1-0.7,0.1-1.2,0.2c-0.5,0.1-1.1,0.1-1.7,0.1c-0.6,0-1.1,0-1.5-0.1c-0.4-0.1-0.8-0.2-1.1-0.4
	c-0.3-0.2-0.5-0.5-0.7-0.9c-0.2-0.4-0.2-0.9-0.2-1.5V15.1c0-0.6,0.1-1.1,0.3-1.5c0.2-0.4,0.5-0.8,0.9-1.1c0.4-0.3,0.9-0.6,1.5-0.9
	c0.6-0.3,1.3-0.5,1.9-0.7c0.7-0.2,1.4-0.3,2.1-0.4c0.7-0.1,1.5-0.2,2.2-0.2c1.2,0,2.2,0.2,2.9,0.7c0.7,0.4,1.1,1.2,1.1,2.2
	c0,0.3-0.1,0.7-0.2,1c-0.1,0.3-0.2,0.6-0.4,0.9c-0.5,0-1.1,0-1.6,0.1c-0.6,0.1-1.1,0.1-1.6,0.2c-0.5,0.1-1,0.2-1.5,0.3
	c-0.5,0.1-0.8,0.2-1.2,0.4V29z"/>
<path class="st1" d="M94.2,29.6c-1.5,0-2.9-0.2-4.2-0.6c-1.3-0.4-2.4-1-3.3-1.9c-0.9-0.8-1.7-1.9-2.2-3.1c-0.5-1.2-0.8-2.7-0.8-4.4
	c0-1.6,0.3-3.1,0.8-4.2c0.6-1.2,1.3-2.2,2.2-2.9c0.9-0.8,1.9-1.3,3-1.7c1.1-0.4,2.3-0.6,3.5-0.6c1.3,0,2.6,0.2,3.6,0.6
	c1.1,0.4,2.1,0.9,2.8,1.6c0.8,0.7,1.4,1.5,1.9,2.5c0.5,1,0.7,2,0.7,3.2c0,0.8-0.2,1.5-0.7,1.9c-0.5,0.4-1.2,0.7-2,0.9l-9.4,1.4
	c0.3,0.8,0.8,1.4,1.7,1.9c0.9,0.4,1.8,0.6,3,0.6c1,0,2-0.1,2.9-0.4c0.9-0.3,1.7-0.6,2.3-0.9c0.4,0.2,0.7,0.6,1,1
	c0.3,0.4,0.4,0.9,0.4,1.4c0,1.1-0.5,2-1.6,2.5C99,29,98.1,29.3,97,29.4C96,29.6,95.1,29.6,94.2,29.6z M93.1,14.9
	c-0.6,0-1.1,0.1-1.6,0.3c-0.4,0.2-0.8,0.5-1.1,0.8c-0.3,0.3-0.5,0.6-0.6,1c-0.1,0.4-0.2,0.8-0.2,1.2l6.5-1c-0.1-0.5-0.4-1-0.8-1.5
	C94.8,15.2,94.1,14.9,93.1,14.9z"/>
<path class="st1" d="M115,29.6c-1.5,0-2.9-0.2-4.2-0.6c-1.3-0.4-2.4-1-3.3-1.9c-0.9-0.8-1.7-1.9-2.2-3.1c-0.5-1.2-0.8-2.7-0.8-4.4
	c0-1.6,0.3-3.1,0.8-4.2c0.6-1.2,1.3-2.2,2.2-2.9c0.9-0.8,1.9-1.3,3-1.7c1.1-0.4,2.3-0.6,3.5-0.6c1.3,0,2.6,0.2,3.6,0.6
	c1.1,0.4,2.1,0.9,2.8,1.6c0.8,0.7,1.4,1.5,1.9,2.5c0.5,1,0.7,2,0.7,3.2c0,0.8-0.2,1.5-0.7,1.9c-0.5,0.4-1.2,0.7-2,0.9l-9.4,1.4
	c0.3,0.8,0.8,1.4,1.7,1.9c0.9,0.4,1.8,0.6,3,0.6c1,0,2-0.1,2.9-0.4c0.9-0.3,1.7-0.6,2.3-0.9c0.4,0.2,0.7,0.6,1,1
	c0.3,0.4,0.4,0.9,0.4,1.4c0,1.1-0.5,2-1.6,2.5c-0.8,0.4-1.7,0.7-2.7,0.9C116.9,29.6,115.9,29.6,115,29.6z M114,14.9
	c-0.6,0-1.1,0.1-1.6,0.3c-0.4,0.2-0.8,0.5-1.1,0.8c-0.3,0.3-0.5,0.6-0.6,1c-0.1,0.4-0.2,0.8-0.2,1.2l6.5-1c-0.1-0.5-0.4-1-0.8-1.5
	C115.6,15.2,114.9,14.9,114,14.9z"/>
<path class="st1" d="M138.4,28.6c-0.4,0.3-0.9,0.5-1.6,0.7c-0.7,0.2-1.5,0.3-2.3,0.3c-1,0-1.8-0.1-2.6-0.4c-0.7-0.2-1.2-0.6-1.5-1.2
	c-0.2-0.4-0.5-1-0.8-1.8c-0.3-0.8-0.6-1.6-1-2.5c-0.4-0.9-0.7-2-1.1-3c-0.4-1.1-0.7-2.1-1.1-3.2c-0.3-1-0.6-2.1-0.9-3
	c-0.3-1-0.5-1.8-0.7-2.6c0.4-0.3,0.8-0.6,1.4-0.9c0.6-0.3,1.3-0.4,2-0.4c0.9,0,1.6,0.2,2.2,0.6c0.6,0.3,1,1,1.3,2l1.5,5.7
	c0.3,1.1,0.5,2.1,0.8,3.1c0.3,0.9,0.4,1.6,0.6,2.1h0.2c0.5-1.8,1-3.9,1.5-6.1c0.5-2.2,1-4.5,1.4-6.6c0.4-0.2,0.9-0.4,1.4-0.5
	c0.6-0.1,1.1-0.2,1.6-0.2c0.9,0,1.6,0.2,2.2,0.6c0.6,0.4,0.9,1,0.9,1.9c0,0.4-0.1,1-0.3,1.8c-0.2,0.7-0.4,1.6-0.7,2.6
	c-0.3,0.9-0.6,2-1,3c-0.4,1.1-0.8,2.1-1.2,3.1c-0.4,1-0.8,2-1.2,2.9C139.1,27.3,138.7,28,138.4,28.6z"/>
<path class="st1" d="M154.3,25c0.4,0,0.9,0,1.4-0.1c0.5-0.1,0.9-0.2,1.2-0.4v-3l-2.7,0.2c-0.7,0.1-1.3,0.2-1.7,0.4
	c-0.5,0.2-0.7,0.6-0.7,1.1c0,0.5,0.2,0.9,0.6,1.2C152.7,24.8,153.4,25,154.3,25z M154,10.3c1.4,0,2.6,0.1,3.7,0.4
	c1.1,0.3,2.1,0.7,2.9,1.3c0.8,0.5,1.4,1.3,1.9,2.1c0.4,0.8,0.6,1.9,0.6,3v8.4c0,0.6-0.2,1.2-0.6,1.6c-0.4,0.4-0.8,0.7-1.3,1
	c-1.6,1-4,1.5-6.9,1.5c-1.3,0-2.6-0.1-3.6-0.4c-1.1-0.2-2-0.6-2.8-1.1c-0.8-0.5-1.4-1.1-1.8-1.9c-0.4-0.8-0.6-1.7-0.6-2.7
	c0-1.7,0.5-3,1.6-4c1-0.9,2.6-1.5,4.8-1.7l5-0.5V17c0-0.7-0.3-1.2-1-1.5c-0.6-0.3-1.6-0.5-2.8-0.5c-1,0-1.9,0.1-2.8,0.3
	s-1.7,0.4-2.5,0.7c-0.3-0.2-0.6-0.6-0.8-1c-0.2-0.5-0.3-1-0.3-1.5c0-0.6,0.2-1.2,0.5-1.5c0.3-0.4,0.8-0.7,1.5-1
	c0.7-0.3,1.6-0.5,2.6-0.6C152.2,10.3,153.1,10.3,154,10.3z"/>
<path class="st1" d="M177.5,15.3c-0.6,0-1.2,0.1-1.8,0.3c-0.6,0.2-1.1,0.5-1.5,0.9c-0.4,0.4-0.7,0.8-1,1.4c-0.3,0.6-0.4,1.2-0.4,2
	c0,1.5,0.4,2.7,1.3,3.5c0.9,0.8,2,1.2,3.3,1.2c0.8,0,1.4-0.1,2-0.3c0.6-0.2,1.1-0.4,1.5-0.6c0.5,0.3,0.9,0.7,1.1,1.2
	c0.3,0.4,0.4,0.9,0.4,1.5c0,1-0.5,1.8-1.5,2.4c-1,0.5-2.4,0.8-4.1,0.8c-1.6,0-3-0.2-4.3-0.7c-1.3-0.5-2.4-1.1-3.3-1.9
	c-0.9-0.8-1.6-1.9-2.1-3c-0.5-1.2-0.8-2.5-0.8-3.9c0-1.6,0.3-3.1,0.8-4.3c0.6-1.2,1.3-2.3,2.2-3.1c0.9-0.8,2-1.4,3.2-1.8
	c1.2-0.4,2.5-0.6,3.9-0.6c1.8,0,3.2,0.3,4.2,1c1,0.6,1.5,1.5,1.5,2.5c0,0.5-0.1,0.9-0.3,1.3c-0.2,0.4-0.5,0.7-0.8,1
	c-0.4-0.2-0.9-0.4-1.6-0.6C178.8,15.4,178.2,15.3,177.5,15.3z"/>
</svg>
