<svg width="183" height="36" viewBox="0 0 183 36" fill="none" xmlns="http://www.w3.org/2000/svg">
<path fill-rule="evenodd" clip-rule="evenodd" d="M1.47177 16.6823C1.28258 15.2768 2.46486 14.1211 3.90084 14.1211H9.101C10.537 14.1211 11.6636 15.294 12.0678 16.6545C12.3401 17.5712 12.7564 18.4271 13.2908 19.1966C13.3372 19.256 13.3818 19.3168 13.4246 19.3789C13.4439 19.4069 13.4633 19.4348 13.4828 19.4627C15.1406 21.6735 17.8015 23.1068 20.8014 23.1068C24.9363 23.1068 28.4272 20.3837 29.5349 16.6545C29.9391 15.294 31.0657 14.1211 32.5017 14.1211H37.7019C39.1378 14.1211 40.3201 15.2768 40.1309 16.6823C38.8625 26.1058 30.6918 33.3762 20.8014 33.3762C19.1602 33.3762 17.5664 33.176 16.0436 32.7991C14.9034 32.5168 13.69 32.6335 12.6452 33.1655C9.80472 34.6118 6.65387 35.5959 3.9008 35.9788C2.60578 36.159 1.51931 35.2058 1.33568 33.9631C1.2993 33.7169 1.33278 33.4673 1.38128 33.2231L3.17429 24.1969C3.34277 23.3487 3.20456 22.4746 2.86065 21.6798C2.18152 20.1102 1.70747 18.4334 1.47177 16.6823Z" fill="white" fill-opacity="0.24"/>
<path d="M0 5.1347C0 2.29888 2.32819 0 5.20016 0C8.07212 0 10.4003 2.29888 10.4003 5.1347C10.4003 7.97052 8.07212 10.2694 5.20016 10.2694C2.32819 10.2694 0 7.97052 0 5.1347Z" fill="white" fill-opacity="0.56"/>
<path d="M31.2012 5.1347C31.2012 2.29888 33.5294 0 36.4013 0C39.2733 0 41.6015 2.29888 41.6015 5.1347C41.6015 7.97052 39.2733 10.2694 36.4013 10.2694C33.5294 10.2694 31.2012 7.97052 31.2012 5.1347Z" fill="white" fill-opacity="0.56"/>
<path d="M54.0508 10.8291C54.0508 9.55479 54.2659 8.46791 54.696 7.56843C55.1515 6.64396 55.7588 5.89439 56.5179 5.31972C57.2771 4.72006 58.1627 4.28281 59.1749 4.00797C60.2123 3.73312 61.3131 3.5957 62.4771 3.5957C64.3496 3.5957 65.7287 3.84556 66.6143 4.34527C67.5 4.82 67.9428 5.64453 67.9428 6.81885C67.9428 7.31857 67.8289 7.76831 67.6012 8.16808C67.3987 8.56785 67.171 8.86768 66.918 9.06757C66.4372 8.94264 65.9311 8.8427 65.3997 8.76774C64.8936 8.6678 64.299 8.61783 63.6158 8.61783C62.5277 8.61783 61.68 8.80522 61.0727 9.18C60.4654 9.5298 60.1617 10.1544 60.1617 11.0539V12.2532H66.3866C66.5384 12.5281 66.6776 12.8779 66.8041 13.3026C66.9559 13.7024 67.0318 14.1522 67.0318 14.6519C67.0318 15.5264 66.8294 16.1635 66.4245 16.5633C66.045 16.9381 65.5262 17.1254 64.8683 17.1254H60.5033V29.0061C60.2503 29.0811 59.8454 29.1561 59.2887 29.231C58.7574 29.306 58.2007 29.3434 57.6187 29.3434C57.062 29.3434 56.5559 29.306 56.1004 29.231C55.6702 29.1561 55.3033 29.0061 54.9997 28.7813C54.696 28.5564 54.4556 28.2566 54.2785 27.8818C54.1267 27.482 54.0508 26.9698 54.0508 26.3452V10.8291Z" fill="white" fill-opacity="0.24"/>
<path d="M75.9954 29.0061C75.7424 29.0811 75.3375 29.1561 74.7808 29.231C74.2495 29.306 73.6928 29.3434 73.1108 29.3434C72.5541 29.3434 72.048 29.306 71.5925 29.231C71.1623 29.1561 70.7954 29.0061 70.4918 28.7813C70.1881 28.5564 69.9477 28.2566 69.7706 27.8818C69.6188 27.482 69.5429 26.9698 69.5429 26.3452V15.1016C69.5429 14.5269 69.6441 14.0397 69.8465 13.6399C70.0743 13.2152 70.3906 12.8404 70.7954 12.5156C71.2003 12.1908 71.6937 11.9034 72.2757 11.6536C72.883 11.3787 73.5283 11.1414 74.2115 10.9415C74.8947 10.7416 75.6032 10.5917 76.337 10.4918C77.0709 10.3668 77.8047 10.3044 78.5385 10.3044C79.7531 10.3044 80.7147 10.5417 81.4232 11.0164C82.1317 11.4662 82.486 12.2158 82.486 13.2652C82.486 13.615 82.4354 13.9648 82.3341 14.3146C82.2329 14.6394 82.1064 14.9392 81.9546 15.214C81.4232 15.214 80.8791 15.239 80.3225 15.289C79.7658 15.339 79.2217 15.4139 78.6903 15.5139C78.1589 15.6138 77.6529 15.7262 77.1721 15.8512C76.7166 15.9511 76.3244 16.076 75.9954 16.226V29.0061Z" fill="white" fill-opacity="0.24"/>
<path d="M94.1984 29.6433C92.7055 29.6433 91.3138 29.4434 90.0233 29.0436C88.758 28.6189 87.6447 27.9942 86.6831 27.1697C85.7468 26.3452 85.0004 25.3083 84.4437 24.059C83.9123 22.8097 83.6466 21.348 83.6466 19.674C83.6466 18.0249 83.9123 16.6132 84.4437 15.4389C85.0004 14.2396 85.7215 13.2652 86.6072 12.5156C87.4928 11.741 88.505 11.1789 89.6437 10.8291C90.7824 10.4543 91.9464 10.2669 93.1357 10.2669C94.4768 10.2669 95.6914 10.4668 96.7795 10.8665C97.8928 11.2663 98.8418 11.816 99.6262 12.5156C100.436 13.2152 101.056 14.0522 101.486 15.0267C101.942 16.0011 102.169 17.063 102.169 18.2123C102.169 19.0618 101.929 19.7115 101.448 20.1612C100.967 20.611 100.297 20.8983 99.4364 21.0232L90.0612 22.4099C90.3396 23.2344 90.9089 23.8591 91.7692 24.2838C92.6296 24.6836 93.6164 24.8835 94.7298 24.8835C95.7673 24.8835 96.7415 24.7586 97.6525 24.5087C98.5887 24.2339 99.3478 23.9216 99.9298 23.5718C100.335 23.8216 100.676 24.1714 100.955 24.6212C101.233 25.0709 101.372 25.5456 101.372 26.0453C101.372 27.1697 100.841 28.0067 99.778 28.5564C98.9683 28.9812 98.0573 29.2685 97.0452 29.4184C96.033 29.5683 95.0841 29.6433 94.1984 29.6433ZM93.1357 14.9142C92.5284 14.9142 91.997 15.0142 91.5415 15.214C91.1113 15.4139 90.7571 15.6763 90.4787 16.0011C90.2004 16.3009 89.9853 16.6507 89.8335 17.0505C89.7069 17.4253 89.631 17.8126 89.6057 18.2123L96.0962 17.1629C96.0203 16.6632 95.742 16.1635 95.2612 15.6638C94.7804 15.1641 94.0719 14.9142 93.1357 14.9142Z" fill="white" fill-opacity="0.24"/>
<path d="M115.03 29.6433C113.537 29.6433 112.145 29.4434 110.855 29.0436C109.59 28.6189 108.476 27.9942 107.515 27.1697C106.578 26.3452 105.832 25.3083 105.275 24.059C104.744 22.8097 104.478 21.348 104.478 19.674C104.478 18.0249 104.744 16.6132 105.275 15.4389C105.832 14.2396 106.553 13.2652 107.439 12.5156C108.324 11.741 109.336 11.1789 110.475 10.8291C111.614 10.4543 112.778 10.2669 113.967 10.2669C115.308 10.2669 116.523 10.4668 117.611 10.8665C118.724 11.2663 119.673 11.816 120.458 12.5156C121.267 13.2152 121.887 14.0522 122.318 15.0267C122.773 16.0011 123.001 17.063 123.001 18.2123C123.001 19.0618 122.76 19.7115 122.28 20.1612C121.799 20.611 121.128 20.8983 120.268 21.0232L110.893 22.4099C111.171 23.2344 111.74 23.8591 112.601 24.2838C113.461 24.6836 114.448 24.8835 115.561 24.8835C116.599 24.8835 117.573 24.7586 118.484 24.5087C119.42 24.2339 120.179 23.9216 120.761 23.5718C121.166 23.8216 121.508 24.1714 121.786 24.6212C122.064 25.0709 122.204 25.5456 122.204 26.0453C122.204 27.1697 121.672 28.0067 120.609 28.5564C119.8 28.9812 118.889 29.2685 117.877 29.4184C116.864 29.5683 115.916 29.6433 115.03 29.6433ZM113.967 14.9142C113.36 14.9142 112.828 15.0142 112.373 15.214C111.943 15.4139 111.589 15.6763 111.31 16.0011C111.032 16.3009 110.817 16.6507 110.665 17.0505C110.538 17.4253 110.463 17.8126 110.437 18.2123L116.928 17.1629C116.852 16.6632 116.573 16.1635 116.093 15.6638C115.612 15.1641 114.903 14.9142 113.967 14.9142Z" fill="white" fill-opacity="0.24"/>
<path d="M138.443 28.5551C138.089 28.83 137.57 29.0548 136.887 29.2297C136.204 29.4046 135.432 29.4921 134.571 29.4921C133.585 29.4921 132.724 29.3672 131.99 29.1173C131.282 28.8675 130.788 28.4677 130.51 27.918C130.282 27.4932 130.004 26.9061 129.675 26.1565C129.371 25.382 129.042 24.5324 128.688 23.608C128.334 22.6585 127.967 21.6466 127.587 20.5722C127.208 19.4978 126.841 18.4359 126.487 17.3865C126.158 16.3371 125.854 15.3252 125.576 14.3508C125.297 13.3763 125.07 12.5143 124.893 11.7648C125.247 11.415 125.715 11.1151 126.297 10.8653C126.904 10.5904 127.562 10.453 128.271 10.453C129.156 10.453 129.878 10.6404 130.434 11.0152C131.016 11.365 131.446 12.0396 131.725 13.039L133.205 18.7732C133.483 19.8976 133.749 20.922 134.002 21.8465C134.255 22.746 134.445 23.4456 134.571 23.9453H134.761C135.242 22.0963 135.748 20.0475 136.279 17.7988C136.811 15.5501 137.292 13.3389 137.722 11.1651C138.152 10.9402 138.633 10.7653 139.164 10.6404C139.721 10.5155 140.252 10.453 140.758 10.453C141.644 10.453 142.39 10.6404 142.998 11.0152C143.605 11.39 143.909 12.0396 143.909 12.9641C143.909 13.3638 143.807 13.951 143.605 14.7256C143.428 15.4751 143.188 16.3371 142.884 17.3116C142.606 18.261 142.264 19.273 141.859 20.3473C141.479 21.4217 141.087 22.4711 140.682 23.4955C140.278 24.5199 139.873 25.4819 139.468 26.3814C139.088 27.2559 138.747 27.9805 138.443 28.5551Z" fill="white" fill-opacity="0.56"/>
<path d="M154.315 24.9947C154.745 24.9947 155.213 24.9572 155.719 24.8822C156.25 24.7823 156.643 24.6574 156.896 24.5075V21.5092L154.163 21.734C153.454 21.784 152.872 21.9339 152.417 22.1838C151.961 22.4336 151.734 22.8084 151.734 23.3081C151.734 23.8079 151.923 24.2201 152.303 24.5449C152.708 24.8448 153.378 24.9947 154.315 24.9947ZM154.011 10.2656C155.377 10.2656 156.617 10.403 157.731 10.6779C158.869 10.9527 159.831 11.3775 160.615 11.9522C161.425 12.5018 162.045 13.2139 162.475 14.0884C162.905 14.9379 163.12 15.9499 163.12 17.1242V25.5194C163.12 26.169 162.931 26.7062 162.551 27.1309C162.197 27.5307 161.767 27.8805 161.261 28.1803C159.616 29.1548 157.301 29.642 154.315 29.642C152.974 29.642 151.759 29.5171 150.671 29.2672C149.608 29.0174 148.684 28.6426 147.9 28.1429C147.141 27.6432 146.546 27.006 146.116 26.2315C145.711 25.4569 145.509 24.5574 145.509 23.533C145.509 21.809 146.028 20.4848 147.065 19.5603C148.102 18.6358 149.709 18.0612 151.885 17.8363L156.858 17.3116V17.0492C156.858 16.3247 156.529 15.8124 155.871 15.5126C155.238 15.1878 154.315 15.0254 153.1 15.0254C152.138 15.0254 151.202 15.1253 150.291 15.3252C149.38 15.5251 148.558 15.775 147.824 16.0748C147.495 15.8499 147.217 15.5126 146.989 15.0629C146.761 14.5881 146.647 14.1009 146.647 13.6012C146.647 12.9516 146.799 12.4394 147.103 12.0646C147.432 11.6648 147.925 11.3275 148.583 11.0527C149.317 10.7778 150.177 10.5779 151.164 10.453C152.176 10.3281 153.125 10.2656 154.011 10.2656Z" fill="white" fill-opacity="0.56"/>
<path d="M177.466 15.2877C176.833 15.2877 176.226 15.3877 175.644 15.5876C175.087 15.7875 174.594 16.0873 174.164 16.4871C173.759 16.8618 173.43 17.3366 173.177 17.9112C172.924 18.4859 172.797 19.1605 172.797 19.9351C172.797 21.4842 173.24 22.646 174.126 23.4206C175.037 24.1951 176.137 24.5824 177.428 24.5824C178.187 24.5824 178.845 24.495 179.402 24.3201C179.958 24.1452 180.452 23.9578 180.882 23.7579C181.388 24.1077 181.768 24.495 182.021 24.9197C182.274 25.3195 182.4 25.8067 182.4 26.3814C182.4 27.4058 181.907 28.2053 180.92 28.78C179.933 29.3297 178.567 29.6045 176.821 29.6045C175.226 29.6045 173.784 29.3797 172.494 28.9299C171.203 28.4552 170.09 27.8056 169.153 26.981C168.243 26.1315 167.534 25.1196 167.028 23.9453C166.522 22.771 166.269 21.4717 166.269 20.0475C166.269 18.3985 166.534 16.9618 167.066 15.7375C167.623 14.4882 168.369 13.4638 169.305 12.6642C170.242 11.8647 171.317 11.2651 172.532 10.8653C173.771 10.4655 175.075 10.2656 176.441 10.2656C178.263 10.2656 179.667 10.5904 180.654 11.2401C181.641 11.8897 182.134 12.7267 182.134 13.7511C182.134 14.2259 182.021 14.6756 181.793 15.1004C181.565 15.5001 181.299 15.8499 180.996 16.1498C180.566 15.9499 180.047 15.7625 179.44 15.5876C178.832 15.3877 178.174 15.2877 177.466 15.2877Z" fill="white" fill-opacity="0.56"/>
</svg>
