<svg width="160" height="32" viewBox="0 0 160 32" fill="none" xmlns="http://www.w3.org/2000/svg">
<path fill-rule="evenodd" clip-rule="evenodd" d="M1.28734 14.8279C1.12176 13.5785 2.15647 12.5513 3.4132 12.5513H7.96426C9.221 12.5513 10.207 13.5938 10.5607 14.8032C10.799 15.618 11.1633 16.3788 11.6311 17.0629C11.6717 17.1156 11.7108 17.1696 11.7482 17.2249C11.765 17.2498 11.782 17.2746 11.7991 17.2993C13.25 19.2646 15.5787 20.5386 18.2041 20.5386C21.823 20.5386 24.8781 18.118 25.8475 14.8032C26.2012 13.5938 27.1873 12.5513 28.444 12.5513H32.9951C34.2518 12.5513 35.2865 13.5785 35.1209 14.8279C34.0108 23.2044 26.86 29.6669 18.2041 29.6669C16.7678 29.6669 15.373 29.489 14.0403 29.1539C13.0424 28.903 11.9805 29.0068 11.0661 29.4796C8.58013 30.7653 5.82259 31.6399 3.41317 31.9804C2.27979 32.1405 1.32894 31.2933 1.16823 30.1887C1.13639 29.9698 1.1657 29.7479 1.20814 29.5308L2.77734 21.5075C2.92479 20.7536 2.80383 19.9766 2.50285 19.2701C1.90849 17.8749 1.49362 16.3845 1.28734 14.8279Z" fill="#FCFCFD"/>
<path d="M0 4.56418C0 2.04345 2.03758 0 4.55105 0C7.06453 0 9.10211 2.04345 9.10211 4.56418C9.10211 7.08491 7.06453 9.12836 4.55105 9.12836C2.03758 9.12836 0 7.08491 0 4.56418Z" fill="#5BD64D"/>
<path d="M27.3062 4.56418C27.3062 2.04345 29.3437 0 31.8572 0C34.3707 0 36.4083 2.04345 36.4083 4.56418C36.4083 7.08491 34.3707 9.12836 31.8572 9.12836C29.3437 9.12836 27.3062 7.08491 27.3062 4.56418Z" fill="#5BD64D"/>
<path d="M47.3042 9.62545C47.3042 8.49276 47.4924 7.52665 47.8689 6.72711C48.2675 5.90536 48.799 5.23907 49.4634 4.72826C50.1278 4.19523 50.9029 3.80656 51.7887 3.56226C52.6967 3.31795 53.66 3.1958 54.6787 3.1958C56.3175 3.1958 57.5244 3.4179 58.2995 3.86208C59.0746 4.28407 59.4621 5.01698 59.4621 6.06082C59.4621 6.50502 59.3625 6.90479 59.1632 7.26014C58.986 7.61549 58.7867 7.882 58.5652 8.05968C58.1445 7.94863 57.7016 7.85979 57.2365 7.79317C56.7936 7.70433 56.2732 7.65991 55.6752 7.65991C54.723 7.65991 53.9811 7.82648 53.4496 8.15962C52.9181 8.47055 52.6524 9.02579 52.6524 9.82534V10.8914H58.1002C58.2331 11.1357 58.3549 11.4466 58.4656 11.8242C58.5985 12.1795 58.6649 12.5793 58.6649 13.0235C58.6649 13.8008 58.4877 14.3672 58.1334 14.7225C57.8012 15.0557 57.3472 15.2222 56.7715 15.2222H52.9513V25.7829C52.7299 25.8495 52.3755 25.9161 51.8883 25.9827C51.4233 26.0494 50.9361 26.0827 50.4267 26.0827C49.9395 26.0827 49.4966 26.0494 49.098 25.9827C48.7215 25.9161 48.4004 25.7829 48.1347 25.583C47.8689 25.3831 47.6585 25.1166 47.5035 24.7834C47.3706 24.4281 47.3042 23.9728 47.3042 23.4175V9.62545Z" fill="#FCFCFD"/>
<path d="M66.5096 25.7829C66.2882 25.8495 65.9339 25.9161 65.4467 25.9827C64.9816 26.0494 64.4944 26.0827 63.985 26.0827C63.4978 26.0827 63.0549 26.0494 62.6563 25.9827C62.2798 25.9161 61.9587 25.7829 61.693 25.583C61.4272 25.3831 61.2168 25.1166 61.0618 24.7834C60.9289 24.4281 60.8625 23.9728 60.8625 23.4175V13.4233C60.8625 12.9125 60.9511 12.4794 61.1283 12.124C61.3276 11.7465 61.6044 11.4133 61.9587 11.1246C62.313 10.8359 62.7449 10.5805 63.2542 10.3584C63.7857 10.1141 64.3504 9.90307 64.9484 9.72539C65.5463 9.54772 66.1664 9.41446 66.8086 9.32562C67.4508 9.21457 68.0931 9.15905 68.7353 9.15905C69.7983 9.15905 70.6398 9.37004 71.2599 9.79202C71.88 10.1918 72.19 10.8581 72.19 11.7909C72.19 12.1018 72.1457 12.4127 72.0571 12.7237C71.9685 13.0124 71.8578 13.2789 71.7249 13.5232C71.2599 13.5232 70.7837 13.5454 70.2965 13.5898C69.8093 13.6343 69.3332 13.7009 68.8682 13.7897C68.4031 13.8786 67.9602 13.9785 67.5394 14.0896C67.1408 14.1784 66.7975 14.2894 66.5096 14.4227V25.7829Z" fill="#FCFCFD"/>
<path d="M82.4405 26.3492C81.1339 26.3492 79.9159 26.1715 78.7865 25.8162C77.6792 25.4386 76.7048 24.8834 75.8632 24.1505C75.0438 23.4175 74.3905 22.4959 73.9033 21.3854C73.4383 20.2749 73.2058 18.9756 73.2058 17.4876C73.2058 16.0218 73.4383 14.7669 73.9033 13.7231C74.3905 12.657 75.0217 11.7909 75.7968 11.1246C76.5719 10.4361 77.4577 9.93638 78.4543 9.62545C79.4508 9.29231 80.4695 9.12573 81.5104 9.12573C82.6841 9.12573 83.7471 9.30341 84.6993 9.65876C85.6737 10.0141 86.5042 10.5027 87.1907 11.1246C87.8994 11.7465 88.4419 12.4905 88.8184 13.3566C89.217 14.2228 89.4163 15.1667 89.4163 16.1884C89.4163 16.9435 89.206 17.5209 88.7852 17.9207C88.3644 18.3205 87.7776 18.5759 87.0246 18.6869L78.8197 19.9195C79.0633 20.6525 79.5615 21.2077 80.3145 21.5853C81.0675 21.9406 81.9311 22.1183 82.9055 22.1183C83.8135 22.1183 84.6661 22.0072 85.4633 21.7851C86.2827 21.5408 86.9471 21.2632 87.4565 20.9523C87.8108 21.1744 88.1098 21.4853 88.3534 21.8851C88.597 22.2849 88.7188 22.7068 88.7188 23.151C88.7188 24.1505 88.2537 24.8945 87.3236 25.3831C86.6149 25.7606 85.8177 26.0161 84.9319 26.1493C84.046 26.2826 83.2156 26.3492 82.4405 26.3492ZM81.5104 13.2567C80.9789 13.2567 80.5138 13.3455 80.1152 13.5232C79.7387 13.7009 79.4287 13.9341 79.1851 14.2228C78.9415 14.4893 78.7532 14.8003 78.6204 15.1556C78.5096 15.4888 78.4432 15.833 78.421 16.1884L84.1014 15.2556C84.035 14.8114 83.7914 14.3672 83.3706 13.923C82.9498 13.4788 82.3298 13.2567 81.5104 13.2567Z" fill="#FCFCFD"/>
<path d="M100.672 26.3492C99.3651 26.3492 98.1471 26.1715 97.0177 25.8162C95.9104 25.4386 94.936 24.8834 94.0944 24.1505C93.275 23.4175 92.6217 22.4959 92.1345 21.3854C91.6695 20.2749 91.437 18.9756 91.437 17.4876C91.437 16.0218 91.6695 14.7669 92.1345 13.7231C92.6217 12.657 93.2529 11.7909 94.028 11.1246C94.8031 10.4361 95.6889 9.93638 96.6855 9.62545C97.682 9.29231 98.7007 9.12573 99.7416 9.12573C100.915 9.12573 101.978 9.30341 102.931 9.65876C103.905 10.0141 104.735 10.5027 105.422 11.1246C106.131 11.7465 106.673 12.4905 107.05 13.3566C107.448 14.2228 107.648 15.1667 107.648 16.1884C107.648 16.9435 107.437 17.5209 107.016 17.9207C106.596 18.3205 106.009 18.5759 105.256 18.6869L97.0509 19.9195C97.2945 20.6525 97.7927 21.2077 98.5457 21.5853C99.2987 21.9406 100.162 22.1183 101.137 22.1183C102.045 22.1183 102.897 22.0072 103.695 21.7851C104.514 21.5408 105.178 21.2632 105.688 20.9523C106.042 21.1744 106.341 21.4853 106.585 21.8851C106.828 22.2849 106.95 22.7068 106.95 23.151C106.95 24.1505 106.485 24.8945 105.555 25.3831C104.846 25.7606 104.049 26.0161 103.163 26.1493C102.277 26.2826 101.447 26.3492 100.672 26.3492ZM99.7416 13.2567C99.2101 13.2567 98.745 13.3455 98.3464 13.5232C97.9699 13.7009 97.6599 13.9341 97.4163 14.2228C97.1727 14.4893 96.9844 14.8003 96.8516 15.1556C96.7408 15.4888 96.6744 15.833 96.6523 16.1884L102.333 15.2556C102.266 14.8114 102.023 14.3672 101.602 13.923C101.181 13.4788 100.561 13.2567 99.7416 13.2567Z" fill="#FCFCFD"/>
<path d="M121.162 25.3828C120.852 25.6271 120.398 25.827 119.8 25.9825C119.202 26.138 118.526 26.2157 117.773 26.2157C116.91 26.2157 116.157 26.1046 115.515 25.8825C114.895 25.6604 114.463 25.3051 114.219 24.8165C114.02 24.4389 113.776 23.917 113.488 23.2507C113.223 22.5622 112.935 21.8071 112.625 20.9854C112.315 20.1414 111.993 19.2419 111.661 18.2869C111.329 17.3319 111.008 16.388 110.698 15.4552C110.41 14.5224 110.144 13.6229 109.901 12.7567C109.657 11.8906 109.458 11.1243 109.303 10.4581C109.613 10.1471 110.022 9.88061 110.532 9.65852C111.063 9.41421 111.639 9.29206 112.259 9.29206C113.034 9.29206 113.665 9.45863 114.153 9.79177C114.662 10.1027 115.038 10.7024 115.282 11.5907L116.578 16.6878C116.821 17.6872 117.054 18.5978 117.275 19.4196C117.497 20.2191 117.663 20.841 117.773 21.2852H117.94C118.36 19.6417 118.803 17.8205 119.268 15.8216C119.733 13.8228 120.154 11.8573 120.531 9.92503C120.907 9.72514 121.328 9.56968 121.793 9.45863C122.28 9.34758 122.745 9.29206 123.188 9.29206C123.963 9.29206 124.616 9.45863 125.148 9.79177C125.679 10.1249 125.945 10.7024 125.945 11.5241C125.945 11.8795 125.857 12.4014 125.679 13.0899C125.524 13.7562 125.314 14.5224 125.048 15.3886C124.805 16.2325 124.506 17.132 124.151 18.087C123.819 19.042 123.476 19.9748 123.122 20.8854C122.767 21.796 122.413 22.6511 122.059 23.4506C121.726 24.2279 121.427 24.872 121.162 25.3828Z" fill="#5BD64D"/>
<path d="M135.052 22.218C135.429 22.218 135.838 22.1847 136.281 22.118C136.746 22.0292 137.09 21.9181 137.311 21.7849V19.1198L134.919 19.3196C134.299 19.3641 133.79 19.4973 133.391 19.7194C132.993 19.9415 132.793 20.2746 132.793 20.7188C132.793 21.163 132.959 21.5295 133.292 21.8182C133.646 22.0847 134.233 22.218 135.052 22.218ZM134.786 9.12549C135.982 9.12549 137.067 9.24764 138.042 9.49195C139.038 9.73625 139.88 10.1138 140.566 10.6246C141.275 11.1132 141.818 11.7462 142.194 12.5235C142.571 13.2787 142.759 14.1781 142.759 15.222V22.6844C142.759 23.2618 142.593 23.7393 142.261 24.1169C141.951 24.4722 141.574 24.7832 141.131 25.0497C139.692 25.9159 137.665 26.3489 135.052 26.3489C133.878 26.3489 132.816 26.2379 131.863 26.0158C130.933 25.7937 130.125 25.4606 129.438 25.0164C128.774 24.5722 128.254 24.0058 127.877 23.3173C127.523 22.6289 127.346 21.8293 127.346 20.9187C127.346 19.3863 127.8 18.2092 128.707 17.3874C129.615 16.5657 131.022 16.0548 132.926 15.855L137.278 15.3886V15.1554C137.278 14.5113 136.99 14.056 136.414 13.7895C135.861 13.5008 135.052 13.3564 133.989 13.3564C133.148 13.3564 132.328 13.4452 131.531 13.6229C130.734 13.8006 130.014 14.0227 129.372 14.2892C129.084 14.0893 128.84 13.7895 128.641 13.3897C128.442 12.9677 128.342 12.5346 128.342 12.0905C128.342 11.513 128.475 11.0577 128.741 10.7246C129.029 10.3692 129.46 10.0694 130.036 9.82509C130.678 9.58078 131.431 9.40311 132.295 9.29206C133.181 9.18101 134.011 9.12549 134.786 9.12549Z" fill="#5BD64D"/>
<path d="M155.314 13.5896C154.76 13.5896 154.229 13.6784 153.719 13.8561C153.232 14.0338 152.8 14.3003 152.424 14.6556C152.069 14.9888 151.781 15.4108 151.56 15.9216C151.339 16.4324 151.228 17.0321 151.228 17.7206C151.228 19.0975 151.615 20.1303 152.39 20.8188C153.188 21.5073 154.151 21.8515 155.28 21.8515C155.945 21.8515 156.521 21.7738 157.008 21.6183C157.495 21.4629 157.927 21.2963 158.303 21.1186C158.746 21.4295 159.078 21.7738 159.3 22.1514C159.521 22.5067 159.632 22.9398 159.632 23.4506C159.632 24.3612 159.2 25.0719 158.337 25.5827C157.473 26.0713 156.277 26.3156 154.749 26.3156C153.354 26.3156 152.091 26.1157 150.962 25.716C149.833 25.294 148.858 24.7165 148.039 23.9836C147.242 23.2285 146.621 22.329 146.179 21.2852C145.736 20.2413 145.514 19.0864 145.514 17.8205C145.514 16.3547 145.747 15.0776 146.212 13.9894C146.699 12.8789 147.352 11.9683 148.172 11.2576C148.991 10.5469 149.932 10.0139 150.995 9.65852C152.08 9.30316 153.221 9.12549 154.417 9.12549C156.011 9.12549 157.24 9.41421 158.104 9.99166C158.968 10.5691 159.4 11.3131 159.4 12.2237C159.4 12.6457 159.3 13.0455 159.101 13.423C158.901 13.7784 158.669 14.0893 158.403 14.3558C158.026 14.1781 157.573 14.0116 157.041 13.8561C156.51 13.6784 155.934 13.5896 155.314 13.5896Z" fill="#5BD64D"/>
</svg>
