<?xml version="1.0" encoding="utf-8"?>
<!-- Generator: Adobe Illustrator 25.0.0, SVG Export Plug-In . SVG Version: 6.00 Build 0)  -->
<svg version="1.1" id="Слой_1" xmlns="http://www.w3.org/2000/svg" xmlns:xlink="http://www.w3.org/1999/xlink" x="0px" y="0px"
	 viewBox="0 0 160 32" style="enable-background:new 0 0 160 32;" xml:space="preserve">
<style type="text/css">
	.st0{fill-rule:evenodd;clip-rule:evenodd;fill:#FCFCFD;}
	.st1{fill:#5BD64D;}
	.st2{fill:#FCFCFD;}
</style>
<g>
	<path class="st0" d="M6.3,14.8c-0.2-1.2,0.9-2.3,2.1-2.3H13c1.3,0,2.2,1,2.6,2.3c0.2,0.8,0.6,1.6,1.1,2.3c0,0.1,0.1,0.1,0.1,0.2
		c0,0,0,0,0.1,0.1c1.5,2,3.8,3.2,6.4,3.2c3.6,0,6.7-2.4,7.7-5.7c0.4-1.2,1.3-2.3,2.6-2.3h4.6c1.3,0,2.3,1,2.1,2.3
		c-1.1,8.4-8.3,14.8-17,14.8c-1.4,0-2.8-0.2-4.2-0.5c-1-0.3-2.1-0.1-3,0.3c-2.5,1.3-5.3,2.2-7.7,2.5c-1.1,0.2-2.1-0.7-2.2-1.8
		c0-0.2,0-0.4,0-0.7l1.6-8c0.1-0.8,0-1.5-0.3-2.2C6.9,17.9,6.5,16.4,6.3,14.8z"/>
	<path class="st1" d="M5,4.6C5,2,7,0,9.5,0l0,0c2.5,0,4.6,2,4.6,4.6l0,0c0,2.5-2,4.6-4.6,4.6l0,0C7,9.1,5,7.1,5,4.6L5,4.6z"/>
	<path class="st1" d="M32.4,4.6c0-2.5,2-4.6,4.6-4.6l0,0c2.5,0,4.6,2,4.6,4.6l0,0c0,2.5-2,4.6-4.6,4.6l0,0
		C34.4,9.1,32.4,7.1,32.4,4.6L32.4,4.6z"/>
	<path class="st2" d="M66.2,25.7c-0.3,0.3-0.8,0.5-1.5,0.7c-0.7,0.2-1.4,0.3-2.2,0.3c-0.9,0-1.8-0.1-2.5-0.4
		c-0.7-0.2-1.1-0.6-1.4-1.2c-0.2-0.4-0.5-1-0.8-1.7c-0.3-0.8-0.6-1.6-0.9-2.5c-0.3-0.9-0.7-1.9-1.1-3c-0.4-1.1-0.7-2.1-1.1-3.1
		c-0.3-1-0.6-2-0.9-3c-0.3-1-0.5-1.8-0.7-2.5c0.3-0.3,0.8-0.6,1.3-0.9c0.6-0.3,1.2-0.4,1.9-0.4c0.8,0,1.5,0.2,2.1,0.6
		c0.6,0.3,1,1,1.2,2l1.4,5.6c0.3,1.1,0.5,2.1,0.8,3c0.2,0.9,0.4,1.6,0.5,2.1h0.2c0.5-1.8,0.9-3.8,1.5-6c0.5-2.2,1-4.4,1.4-6.5
		c0.4-0.2,0.9-0.4,1.4-0.5c0.5-0.1,1-0.2,1.5-0.2c0.8,0,1.6,0.2,2.1,0.6c0.6,0.4,0.9,1,0.9,1.9c0,0.4-0.1,1-0.3,1.7
		c-0.2,0.7-0.4,1.6-0.7,2.5c-0.3,0.9-0.6,1.9-1,3c-0.4,1.1-0.7,2.1-1.1,3.1c-0.4,1-0.8,2-1.2,2.8C66.8,24.4,66.5,25.2,66.2,25.7z"/>
	<path class="st2" d="M76.5,3.3c0-0.9,0.3-1.7,0.9-2.4c0.6-0.6,1.5-1,2.5-1c1,0,1.8,0.3,2.4,1c0.6,0.6,0.9,1.4,0.9,2.4
		S83,5,82.4,5.7c-0.6,0.6-1.4,1-2.4,1c-1,0-1.8-0.3-2.5-1C76.9,5,76.5,4.3,76.5,3.3z M83,26.2c-0.3,0-0.7,0.1-1.2,0.2
		c-0.5,0.1-1,0.1-1.6,0.1c-0.5,0-1,0-1.5-0.1c-0.4-0.1-0.8-0.2-1.1-0.4c-0.3-0.2-0.5-0.5-0.7-0.9c-0.1-0.4-0.2-0.9-0.2-1.5v-15
		c0.3,0,0.7-0.1,1.2-0.2c0.5-0.1,1.1-0.1,1.6-0.1c0.5,0,1,0,1.4,0.1c0.4,0.1,0.8,0.2,1.1,0.4c0.3,0.2,0.5,0.5,0.7,0.9
		c0.2,0.4,0.3,0.9,0.3,1.5V26.2z"/>
	<path class="st2" d="M101.3,25.7c-0.3,0.3-0.8,0.5-1.5,0.7c-0.7,0.2-1.4,0.3-2.2,0.3c-0.9,0-1.8-0.1-2.5-0.4
		c-0.7-0.2-1.1-0.6-1.4-1.2c-0.2-0.4-0.5-1-0.8-1.7c-0.3-0.8-0.6-1.6-0.9-2.5c-0.3-0.9-0.7-1.9-1.1-3c-0.4-1.1-0.7-2.1-1.1-3.1
		c-0.3-1-0.6-2-0.9-3c-0.3-1-0.5-1.8-0.7-2.5c0.3-0.3,0.8-0.6,1.3-0.9c0.6-0.3,1.2-0.4,1.9-0.4c0.8,0,1.5,0.2,2.1,0.6
		c0.6,0.3,1,1,1.2,2l1.4,5.6c0.3,1.1,0.5,2.1,0.8,3c0.2,0.9,0.4,1.6,0.5,2.1h0.2c0.5-1.8,0.9-3.8,1.5-6c0.5-2.2,1-4.4,1.4-6.5
		c0.4-0.2,0.9-0.4,1.4-0.5c0.5-0.1,1-0.2,1.5-0.2c0.8,0,1.6,0.2,2.1,0.6c0.6,0.4,0.9,1,0.9,1.9c0,0.4-0.1,1-0.3,1.7
		c-0.2,0.7-0.4,1.6-0.7,2.5c-0.3,0.9-0.6,1.9-1,3c-0.4,1.1-0.7,2.1-1.1,3.1c-0.4,1-0.8,2-1.2,2.8C101.9,24.4,101.6,25.2,101.3,25.7z
		"/>
	<path class="st2" d="M111.7,3.3c0-0.9,0.3-1.7,0.9-2.4c0.6-0.6,1.5-1,2.5-1c1,0,1.8,0.3,2.4,1c0.6,0.6,0.9,1.4,0.9,2.4
		s-0.3,1.7-0.9,2.4c-0.6,0.6-1.4,1-2.4,1c-1,0-1.8-0.3-2.5-1C112,5,111.7,4.3,111.7,3.3z M118.1,26.2c-0.3,0-0.7,0.1-1.2,0.2
		c-0.5,0.1-1,0.1-1.6,0.1c-0.5,0-1,0-1.5-0.1c-0.4-0.1-0.8-0.2-1.1-0.4c-0.3-0.2-0.5-0.5-0.7-0.9c-0.1-0.4-0.2-0.9-0.2-1.5v-15
		c0.3,0,0.7-0.1,1.2-0.2c0.5-0.1,1.1-0.1,1.6-0.1c0.5,0,1,0,1.4,0.1c0.4,0.1,0.8,0.2,1.1,0.4c0.3,0.2,0.5,0.5,0.7,0.9
		c0.2,0.4,0.3,0.9,0.3,1.5V26.2z"/>
	<path class="st2" d="M123.8,17.2c0-1.6,0.2-3,0.7-4.2c0.5-1.2,1.1-2.2,2-3c0.9-0.8,1.9-1.4,3-1.7c1.2-0.4,2.4-0.6,3.7-0.6
		c0.5,0,1,0,1.4,0.1c0.5,0.1,0.8,0.2,1.1,0.3v-6c0.2-0.1,0.6-0.1,1.2-0.2c0.5-0.1,1.1-0.1,1.6-0.1c0.5,0,1,0,1.4,0.1
		c0.4,0.1,0.8,0.2,1.1,0.4c0.3,0.2,0.5,0.5,0.7,0.9c0.1,0.4,0.2,0.9,0.2,1.5v17.5c0,1.2-0.5,2.1-1.6,2.8c-0.7,0.5-1.6,0.9-2.7,1.2
		c-1.1,0.4-2.4,0.6-3.8,0.6c-1.6,0-3-0.2-4.2-0.7c-1.2-0.4-2.3-1.1-3.2-1.9c-0.8-0.8-1.5-1.8-2-3C124.1,20,123.8,18.7,123.8,17.2z
		 M134.1,12.6c-1.3,0-2.3,0.4-3,1.1c-0.7,0.8-1.1,1.9-1.1,3.5c0,1.5,0.3,2.7,1,3.5c0.7,0.8,1.6,1.1,2.8,1.1c0.4,0,0.8-0.1,1.2-0.2
		c0.4-0.1,0.6-0.3,0.8-0.5v-8.1C135.4,12.8,134.8,12.6,134.1,12.6z"/>
	<path class="st2" d="M148.3,3.3c0-0.9,0.3-1.7,0.9-2.4c0.6-0.6,1.5-1,2.5-1c1,0,1.8,0.3,2.4,1c0.6,0.6,0.9,1.4,0.9,2.4
		s-0.3,1.7-0.9,2.4c-0.6,0.6-1.4,1-2.4,1c-1,0-1.8-0.3-2.5-1C148.6,5,148.3,4.3,148.3,3.3z M154.7,26.2c-0.3,0-0.7,0.1-1.2,0.2
		c-0.5,0.1-1,0.1-1.6,0.1c-0.5,0-1,0-1.5-0.1c-0.4-0.1-0.8-0.2-1.1-0.4s-0.5-0.5-0.7-0.9c-0.1-0.4-0.2-0.9-0.2-1.5v-15
		c0.3,0,0.7-0.1,1.2-0.2c0.5-0.1,1.1-0.1,1.6-0.1c0.5,0,1,0,1.4,0.1c0.4,0.1,0.8,0.2,1.1,0.4c0.3,0.2,0.5,0.5,0.7,0.9
		c0.2,0.4,0.3,0.9,0.3,1.5V26.2z"/>
</g>
</svg>
