<svg version="1.0" xmlns="http://www.w3.org/2000/svg" width="933.333" height="933.333" viewBox="0 0 700 700"><path d="M169.7 1.6c-22.9 2.9-51.5 12.4-68.6 22.6-3.4 2.1-6.5 3.8-6.8 3.8-1 0-16.8 11.3-23.8 17.1-7.4 6-21.7 20.4-27.5 27.8-12.1 15.1-24.1 36.2-30.4 53.4-3.4 9-7.9 24.5-9 30.7-.2 1.4-.7 4.1-1 6-.3 1.9-.9 5.3-1.3 7.5S.5 252.1.4 347C.2 520.3.3 524.1 3.5 542c2.5 14.2 7.9 30.3 15.3 46.1 18.6 39.7 51.2 72.8 90.4 91.8 17.4 8.4 38 15.1 54.1 17.6 1.8.3 4.8.8 6.7 1.2 1.9.4 81.3.8 176.5.9 187.2.3 181.3.4 204.4-5.1 28.7-6.9 55.9-20.7 78.8-39.8 14.1-11.8 24.8-23.6 36.1-39.7 11.5-16.4 25.8-47.9 28.5-63.1.3-1.3 1-4.3 1.6-6.5 3.9-14.3 4-21.8 3.7-200.4-.2-185.8.1-174.5-5.1-196C678 80.7 623.6 24.7 556.5 7 545.7 4.1 543 3.5 536 2.4c-1.9-.3-4.6-.8-6-1.2-1.4-.3-80.6-.7-176-.8C211.2.3 178.6.5 169.7 1.6zm358.4 185.9c18.4 6 32.6 21.1 36.5 39 1.6 7.3.9 19.2-1.6 25-.5 1.1-1.1 3-1.5 4.2-.9 3.3-8 13.7-12.2 18-21.4 21.8-57.2 20.8-78.6-2.1-4.1-4.3-10.6-15.2-11.4-19-.1-.6-.5-2.2-.9-3.6-.3-1.4-.8-6.1-1-10.6-1.4-36.3 34.9-62.5 70.7-50.9zm-326.2-1c8.5 2.1 17.3 6.8 24.3 13.3 17.2 15.9 21.5 39.7 11.1 61.2-3.8 7.9-15.1 18.9-23.6 22.9-21.4 10.2-47.8 6-63.8-10.2-20.8-21.1-20.5-50.8.6-72.3 13.9-14.1 32.1-19.4 51.4-14.9zm330.7 142.8c8.7 4.4 15.1 13.1 15.8 21.4.7 9-6.6 38.3-13.6 54.3-5.5 12.7-16.7 32.8-19.4 35.1-.8.6-1.4 1.7-1.4 2.4 0 .8-.4 1.5-.8 1.7-.5.1-2.2 2.1-3.8 4.3-6.7 9.2-21.7 24.8-32.4 33.5-24.9 20.5-58.3 35.8-90 41.4-4.7.8-10.1 1.8-12 2.1-1.9.4-11.6.8-21.5 1-19 .3-30.2-.7-48.5-4.5-11.7-2.3-21.8-2.5-29.5-.3-2.7.8-9.5 3.6-15 6.3-21.4 10.4-46.8 19.2-66.5 23.1-3 .5-6.4 1.2-7.5 1.4-7.7 1.5-13.6 2-17.5 1.3-9-1.6-17.3-10.1-18.7-19.3-1-6.9-.8-8.2 2-23.5 1.4-7.5 2.9-15.1 3.2-17 .3-1.9 1.2-6.7 2-10.5.7-3.9 2.3-12.2 3.5-18.5 1.2-6.3 3-16 4.1-21.5 3.8-19.1 3.3-26.2-2.8-39.5-7-15.1-12.8-39.3-12.5-52.2.1-5.8 4.1-13.7 8.7-17.3 7.6-5.7 9.2-5.9 44.5-5.9 31.2.1 32.7.2 37.4 2.3 10.6 4.6 16.2 11.3 20.3 23.9 2.9 9 10.3 23.2 14.7 28.1 8.4 9.5 21.7 21.1 24 21.1.5 0 2 .9 3.4 1.9 3.8 2.7 14.4 6.8 23.7 9.3 11.1 2.9 30.8 3.3 42.5.9 24.3-5.1 44.9-18.8 58.1-38.7 6-8.8 7.9-12.8 11.8-23.8 3.5-9.9 5.6-13.5 11.3-18.8 8.4-7.8 11.8-8.3 49.2-8.2l28.1.1 5.1 2.6z"/></svg>