<?xml version="1.0" standalone="no"?>
<!DOCTYPE svg PUBLIC "-//W3C//DTD SVG 20010904//EN"
 "http://www.w3.org/TR/2001/REC-SVG-20010904/DTD/svg10.dtd">
<svg version="1.0" xmlns="http://www.w3.org/2000/svg"
 width="700.000000pt" height="700.000000pt" viewBox="0 0 700.000000 700.000000"
 preserveAspectRatio="xMidYMid meet">
<metadata>
Created by potrace 1.14, written by Peter Selinger 2001-2017
</metadata>
<g transform="translate(0.000000,700.000000) scale(0.100000,-0.100000)"
fill="#000000" stroke="none">
<path d="M1697 6984 c-229 -29 -515 -124 -686 -226 -34 -21 -65 -38 -68 -38
-10 0 -168 -113 -238 -171 -74 -60 -217 -204 -275 -278 -121 -151 -241 -362
-304 -534 -34 -90 -79 -245 -90 -307 -2 -14 -7 -41 -10 -60 -3 -19 -9 -53 -13
-75 -4 -22 -8 -816 -9 -1765 -2 -1733 -1 -1771 31 -1950 25 -142 79 -303 153
-461 186 -397 512 -728 904 -918 174 -84 380 -151 541 -176 18 -3 48 -8 67
-12 19 -4 813 -8 1765 -9 1872 -3 1813 -4 2044 51 287 69 559 207 788 398 141
118 248 236 361 397 115 164 258 479 285 631 3 13 10 43 16 65 39 143 40 218
37 2004 -2 1858 1 1745 -51 1960 -165 683 -709 1243 -1380 1420 -108 29 -135
35 -205 46 -19 3 -46 8 -60 12 -14 3 -806 7 -1760 8 -1428 1 -1754 -1 -1843
-12z m3584 -1859 c184 -60 326 -211 365 -390 16 -73 9 -192 -16 -250 -5 -11
-11 -30 -15 -42 -9 -33 -80 -137 -122 -180 -214 -218 -572 -208 -786 21 -41
43 -106 152 -114 190 -1 6 -5 22 -9 36 -3 14 -8 61 -10 106 -14 363 349 625
707 509z m-3262 10 c85 -21 173 -68 243 -133 172 -159 215 -397 111 -612 -38
-79 -151 -189 -236 -229 -214 -102 -478 -60 -638 102 -208 211 -205 508 6 723
139 141 321 194 514 149z m3307 -1428 c87 -44 151 -131 158 -214 7 -90 -66
-383 -136 -543 -55 -127 -167 -328 -194 -351 -8 -6 -14 -17 -14 -24 0 -8 -4
-15 -8 -17 -5 -1 -22 -21 -38 -43 -67 -92 -217 -248 -324 -335 -249 -205 -583
-358 -900 -414 -47 -8 -101 -18 -120 -21 -19 -4 -116 -8 -215 -10 -190 -3
-302 7 -485 45 -117 23 -218 25 -295 3 -27 -8 -95 -36 -150 -63 -214 -104
-468 -192 -665 -231 -30 -5 -64 -12 -75 -14 -77 -15 -136 -20 -175 -13 -90 16
-173 101 -187 193 -10 69 -8 82 20 235 14 75 29 151 32 170 3 19 12 67 20 105
7 39 23 122 35 185 12 63 30 160 41 215 38 191 33 262 -28 395 -70 151 -128
393 -125 522 1 58 41 137 87 173 76 57 92 59 445 59 312 -1 327 -2 374 -23
106 -46 162 -113 203 -239 29 -90 103 -232 147 -281 84 -95 217 -211 240 -211
5 0 20 -9 34 -19 38 -27 144 -68 237 -93 111 -29 308 -33 425 -9 243 51 449
188 581 387 60 88 79 128 118 238 35 99 56 135 113 188 84 78 118 83 492 82
l281 -1 51 -26z"/>
</g>
</svg>
