<svg width="16" height="16" viewBox="0 0 16 16" fill="none" xmlns="http://www.w3.org/2000/svg">
<path d="M10.5604 2.56294C11.1467 1.86396 11.5656 0.93198 11.4399 0C10.5604 0.0388325 9.5133 0.543655 8.88505 1.20381C8.34057 1.78629 7.83797 2.75711 7.96362 3.65025C8.96881 3.76675 9.93213 3.26193 10.5604 2.56294ZM11.4399 3.88325C10.0159 3.80559 8.80128 4.62107 8.13115 4.62107C7.46102 4.62107 6.41394 3.92208 5.28309 3.92208C3.81717 3.96092 2.47691 4.69873 1.72301 5.94137C0.215216 8.38782 1.30418 11.9992 2.81198 13.9797C3.52399 14.9505 4.40354 16.0378 5.53439 15.999C6.62335 15.9602 7.04219 15.3388 8.34057 15.3388C9.63895 15.3388 10.0159 15.999 11.1886 15.9602C12.3614 15.9213 13.1153 14.9893 13.8273 13.9797C14.6649 12.8536 15 11.7662 15 11.7274C14.9581 11.6886 12.6964 10.9119 12.6964 8.50432C12.6545 6.48503 14.4555 5.51422 14.5393 5.47538C13.576 4.07741 11.9844 3.92208 11.4399 3.88325Z" fill="#131215"/>
</svg>
