<svg width="16" height="16" viewBox="0 0 16 16" fill="none" xmlns="http://www.w3.org/2000/svg">
<path d="M15.667 8.18278C15.667 7.59804 15.6147 7.03852 15.5175 6.50049H8V9.58298L12.3295 9.58391C12.1539 10.6095 11.5888 11.4838 10.7229 12.0667V14.0666H13.3C14.8048 12.6739 15.667 10.6151 15.667 8.18278Z" fill="#4285F4"/>
<path d="M10.7244 12.0663C10.007 12.5502 9.08319 12.8332 8.00245 12.8332C5.91477 12.8332 4.14373 11.4265 3.50949 9.53027H0.851074V11.5927C2.16814 14.2063 4.87513 15.9998 8.00245 15.9998C10.1639 15.9998 11.9798 15.2889 13.3015 14.0653L10.7244 12.0663Z" fill="#34A853"/>
<path d="M3.25903 8.00066C3.25903 7.46823 3.34777 6.95355 3.50937 6.46969V4.40723H0.850953C0.30638 5.48797 0 6.70789 0 8.00066C0 9.29344 0.307314 10.5134 0.850953 11.5941L3.50937 9.53164C3.34777 9.04778 3.25903 8.53309 3.25903 8.00066Z" fill="#FABB05"/>
<path d="M8.00245 3.16656C9.18221 3.16656 10.2387 3.57289 11.0728 4.36686L13.3566 2.08489C11.9695 0.793042 10.1611 0 8.00245 0C4.87606 0 2.16814 1.79345 0.851074 4.40703L3.50949 6.4695C4.14373 4.5733 5.91477 3.16656 8.00245 3.16656Z" fill="#E94235"/>
</svg>
