<svg version="1.1" id="Capa_1" xmlns="http://www.w3.org/2000/svg" x="0" y="0" viewBox="0 0 308.5 308.5" xml:space="preserve"><style>.st1{fill:#fff}</style><circle cx="154.3" cy="154.3" r="149" fill="#fffa43"/><path d="M223.3 190.4c18.1 0 32.8-14.7 32.8-32.8s-14.7-32.8-32.8-32.8-32.9 14.7-32.9 32.8c0 18.1 14.7 32.8 32.9 32.8z"/><circle cx="85.2" cy="157.6" r="32.8"/><circle class="st1" cx="229.8" cy="147.7" r="13.1"/><circle class="st1" cx="206.8" cy="170.7" r="6.6"/><circle class="st1" cx="91.8" cy="147.7" r="13.1"/><circle class="st1" cx="68.8" cy="170.7" r="6.6"/><path d="M154.3 308.5c41.2 0 79.9-16 109.1-45.2s45.2-67.8 45.2-109.1-16-79.9-45.2-109.1S195.5 0 154.3 0s-80 16-109.1 45.2S0 113 0 154.3s16 79.9 45.2 109.1 67.8 45.1 109.1 45.1zm0-295.8c78 0 141.6 63.5 141.6 141.6s-63.5 141.6-141.6 141.6S12.7 232.3 12.7 154.3 76.2 12.7 154.3 12.7z"/><path d="M82.1 104.9c-.3-4-4.2-6.7-8.1-5.5-5.8 1.7-11 4.7-15.3 8.9-2.9 2.8-2.5 7.5.8 9.8 2.4 1.7 5.8 1.5 7.9-.6 2.9-2.8 6.4-4.9 10.3-6 2.8-.8 4.6-3.6 4.4-6.6zM249 118c3.3-2.3 3.7-7 .8-9.8-4.3-4.1-9.6-7.2-15.3-8.9-3.8-1.1-7.8 1.6-8.1 5.6-.3 3 1.6 5.7 4.4 6.6 3.9 1.1 7.4 3.2 10.3 6 2.2 2 5.5 2.2 7.9.5zm-146 97.8c-.9 1-1.5 1.7-2.1 2.2-1.5 1.2-2.4 3-2.4 5 0 5.3 6.2 8.4 10.3 5 1.5-1.2 2.7-2.6 3.7-3.7 2.2-2.5 2.9-3.1 4.6-3.1 1.6 0 2.3.6 4.6 3.1 2.6 2.9 6.5 7.4 14 7.4s11.4-4.4 14-7.4c2.2-2.5 2.9-3.1 4.6-3.1 1.6 0 2.3.6 4.6 3.1 2.6 2.9 6.5 7.4 14.1 7.4 7.5 0 11.4-4.4 14-7.4 2.2-2.5 2.9-3.1 4.6-3.1 1.6 0 2.3.6 4.5 3.1 1 1.1 2.2 2.5 3.7 3.7 4.1 3.4 10.3.3 10.3-5 0-1.9-.9-3.8-2.4-5-.6-.5-1.3-1.2-2.1-2.1-2.6-2.9-6.5-7.4-14-7.4s-11.5 4.4-14.1 7.4c-2.2 2.5-2.9 3.1-4.6 3.1s-2.3-.6-4.6-3.1c-2.6-2.9-6.5-7.4-14-7.4s-11.4 4.4-14 7.4c-2.2 2.5-2.9 3.1-4.6 3.1-1.6 0-2.3-.6-4.6-3.1-2.6-2.9-6.5-7.4-14.1-7.4-7.5-.1-11.4 4.3-14 7.3z"/></svg>