<svg width="160" height="32" fill="none" xmlns="http://www.w3.org/2000/svg"><path fill-rule="evenodd" clip-rule="evenodd" d="M1.287 14.828c-.165-1.25.87-2.277 2.126-2.277h4.551c1.257 0 2.243 1.043 2.597 2.252a7.962 7.962 0 001.07 2.26 3.236 3.236 0 01.168.236 7.945 7.945 0 006.405 3.24c3.619 0 6.674-2.421 7.643-5.736.354-1.21 1.34-2.252 2.597-2.252h4.551c1.257 0 2.291 1.027 2.126 2.277-1.11 8.376-8.261 14.839-16.917 14.839-1.436 0-2.831-.178-4.164-.513a4.233 4.233 0 00-2.974.326c-2.486 1.285-5.243 2.16-7.653 2.5-1.133.16-2.084-.687-2.245-1.791a1.964 1.964 0 01.04-.658l1.57-8.023c.147-.754.026-1.531-.275-2.238a17.035 17.035 0 01-1.216-4.442z" fill="#FCFCFD"/><path d="M0 4.564A4.558 4.558 0 014.551 0a4.558 4.558 0 014.551 4.564 4.558 4.558 0 01-4.551 4.564A4.558 4.558 0 010 4.564zm27.306 0A4.558 4.558 0 0131.857 0a4.558 4.558 0 014.551 4.564 4.558 4.558 0 01-4.55 4.564 4.558 4.558 0 01-4.552-4.564z" fill="#5BD64D"/><path d="M47.304 9.625c0-1.132.188-2.098.565-2.898.398-.822.93-1.488 1.594-1.999a6.377 6.377 0 012.326-1.166 11.08 11.08 0 012.89-.366c1.639 0 2.845.222 3.62.666.776.422 1.163 1.155 1.163 2.199 0 .444-.1.844-.299 1.2-.177.354-.376.621-.598.799-.42-.111-.863-.2-1.328-.267a8.027 8.027 0 00-1.562-.133c-.952 0-1.694.166-2.225.5-.532.31-.798.866-.798 1.665v1.066H58.1c.133.245.255.556.366.933.133.356.199.755.199 1.2 0 .777-.177 1.343-.532 1.699-.332.333-.786.5-1.361.5h-3.82v10.56c-.222.066-.576.133-1.064.2-.465.066-.952.1-1.461.1-.487 0-.93-.034-1.329-.1a2.218 2.218 0 01-.963-.4 2.07 2.07 0 01-.631-.8c-.133-.355-.2-.81-.2-1.366V9.626zM66.51 25.783c-.222.066-.576.133-1.063.2-.465.066-.953.1-1.462.1-.487 0-.93-.034-1.329-.1a2.218 2.218 0 01-.963-.4 2.07 2.07 0 01-.631-.8c-.133-.355-.2-.81-.2-1.366v-9.994c0-.51.09-.944.266-1.299.2-.378.476-.71.83-1a5.555 5.555 0 011.296-.766 12.738 12.738 0 013.555-1.032 11.288 11.288 0 011.926-.167c1.063 0 1.905.211 2.525.633.62.4.93 1.066.93 1.999 0 .31-.044.622-.133.933a4.32 4.32 0 01-.332.8 15.74 15.74 0 00-2.857.266c-.465.089-.908.189-1.329.3a5.09 5.09 0 00-1.03.333v11.36zm15.93.567c-1.306 0-2.524-.178-3.653-.534a8.652 8.652 0 01-2.924-1.665c-.82-.733-1.472-1.655-1.96-2.766-.465-1.11-.697-2.41-.697-3.897 0-1.466.232-2.721.697-3.765.487-1.066 1.119-1.932 1.894-2.598a7.172 7.172 0 012.657-1.5 9.578 9.578 0 013.056-.5c1.174 0 2.237.178 3.19.534.974.355 1.804.844 2.49 1.466a6.247 6.247 0 011.628 2.232c.399.866.598 1.81.598 2.831 0 .756-.21 1.333-.63 1.733-.422.4-1.008.655-1.761.766l-8.205 1.232c.243.733.742 1.289 1.495 1.666.752.356 1.616.533 2.59.533.909 0 1.761-.11 2.558-.333.82-.244 1.484-.522 1.994-.833.354.222.653.533.896.933.244.4.366.822.366 1.266 0 1-.465 1.744-1.395 2.232a7.382 7.382 0 01-2.392.766 16.7 16.7 0 01-2.492.2zm-.93-13.093c-.531 0-.996.088-1.395.266a2.717 2.717 0 00-.93.7 2.841 2.841 0 00-.565.933c-.11.333-.177.677-.199 1.032l5.68-.932c-.066-.445-.31-.889-.73-1.333-.421-.444-1.041-.666-1.86-.666zm19.162 13.093c-1.307 0-2.525-.178-3.654-.534a8.652 8.652 0 01-2.924-1.665c-.819-.733-1.472-1.655-1.96-2.766-.465-1.11-.697-2.41-.697-3.897 0-1.466.233-2.721.698-3.765.487-1.066 1.118-1.932 1.893-2.598a7.172 7.172 0 012.657-1.5 9.578 9.578 0 013.057-.5c1.173 0 2.236.178 3.189.534.974.355 1.804.844 2.491 1.466a6.25 6.25 0 011.628 2.232 6.7 6.7 0 01.598 2.831c0 .756-.211 1.333-.632 1.733-.42.4-1.007.655-1.76.766l-8.205 1.232c.243.733.742 1.289 1.495 1.666.753.356 1.616.533 2.591.533a9.5 9.5 0 002.558-.333c.819-.244 1.483-.522 1.993-.833.354.222.653.533.897.933.243.4.365.822.365 1.266 0 1-.465 1.744-1.395 2.232a7.384 7.384 0 01-2.392.766c-.886.134-1.716.2-2.491.2zm-.93-13.093c-.532 0-.997.088-1.396.266a2.717 2.717 0 00-.93.7 2.841 2.841 0 00-.564.933 4.04 4.04 0 00-.2 1.032l5.681-.932c-.067-.445-.31-.889-.731-1.333-.421-.444-1.041-.666-1.86-.666z" fill="#FCFCFD"/><path d="M121.162 25.383c-.31.244-.764.444-1.362.6a8.095 8.095 0 01-2.027.233c-.863 0-1.616-.111-2.258-.334-.62-.222-1.052-.577-1.296-1.066a23.472 23.472 0 01-.731-1.565 364.2 364.2 0 01-.863-2.266c-.31-.844-.632-1.743-.964-2.698a217.96 217.96 0 01-.963-2.832c-.288-.933-.554-1.832-.797-2.698a52.284 52.284 0 01-.598-2.299c.31-.31.719-.577 1.229-.8a4.083 4.083 0 011.727-.366c.775 0 1.406.167 1.894.5.509.31.885.91 1.129 1.799l1.296 5.097c.243 1 .476 1.91.697 2.732.222.8.388 1.421.498 1.865h.167c.42-1.643.863-3.465 1.328-5.463.465-2 .886-3.965 1.263-5.897.376-.2.797-.355 1.262-.466a6.277 6.277 0 011.395-.167c.775 0 1.428.167 1.96.5.531.333.797.91.797 1.732 0 .356-.088.877-.266 1.566a34.834 34.834 0 01-.631 2.299 37.798 37.798 0 01-.897 2.698 82.38 82.38 0 01-1.029 2.798 61.835 61.835 0 01-1.063 2.566 29.67 29.67 0 01-.897 1.932zm13.89-3.165c.377 0 .786-.033 1.229-.1.465-.089.809-.2 1.03-.333V19.12l-2.392.2c-.62.044-1.129.177-1.528.4-.398.222-.598.555-.598.999 0 .444.166.81.499 1.1.354.266.941.399 1.76.399zm-.266-13.093c1.196 0 2.281.123 3.256.367.996.244 1.838.622 2.524 1.133a4.814 4.814 0 011.628 1.899c.377.755.565 1.654.565 2.698v7.462c0 .578-.166 1.055-.498 1.433a4.7 4.7 0 01-1.13.933c-1.439.866-3.466 1.299-6.079 1.299-1.174 0-2.236-.111-3.189-.333-.93-.222-1.738-.555-2.425-1a4.782 4.782 0 01-1.561-1.699c-.354-.688-.531-1.488-.531-2.398 0-1.533.454-2.71 1.361-3.532.908-.821 2.315-1.332 4.219-1.532l4.352-.466v-.234c0-.644-.288-1.099-.864-1.365-.553-.29-1.362-.434-2.425-.434-.841 0-1.661.09-2.458.267-.797.178-1.517.4-2.159.666-.288-.2-.532-.5-.731-.9a3.016 3.016 0 01-.299-1.298c0-.578.133-1.033.399-1.366.288-.356.719-.656 1.295-.9.642-.244 1.395-.422 2.259-.533a20.088 20.088 0 012.491-.167zm20.528 4.465a4.81 4.81 0 00-1.595.266 3.726 3.726 0 00-1.295.8 3.75 3.75 0 00-.864 1.266c-.221.51-.332 1.11-.332 1.799 0 1.377.387 2.41 1.162 3.098.798.688 1.761 1.033 2.89 1.033.665 0 1.241-.078 1.728-.234a10.44 10.44 0 001.295-.5c.443.312.775.656.997 1.033.221.356.332.789.332 1.3 0 .91-.432 1.62-1.295 2.132-.864.488-2.06.733-3.588.733-1.395 0-2.658-.2-3.787-.6-1.129-.422-2.104-1-2.923-1.732a7.934 7.934 0 01-1.86-2.699c-.443-1.044-.665-2.199-.665-3.465 0-1.465.233-2.742.698-3.83.487-1.111 1.14-2.022 1.96-2.732a8.25 8.25 0 012.823-1.6 10.926 10.926 0 013.422-.533c1.594 0 2.823.29 3.687.867.864.577 1.296 1.321 1.296 2.232 0 .422-.1.822-.299 1.199-.2.355-.432.666-.698.933a9.418 9.418 0 00-1.362-.5 5.412 5.412 0 00-1.727-.266z" fill="#5BD64D"/></svg>