<svg version="1.1" id="Слой_1" xmlns="http://www.w3.org/2000/svg" x="0" y="0" viewBox="0 0 183 36" xml:space="preserve"><path d="M1.5 16.7c-.2-1.4 1-2.6 2.4-2.6h5.2c1.4 0 2.6 1.2 3 2.5.3.9.7 1.8 1.2 2.5 0 .1.1.1.1.2 0 0 0 .1.1.1 1.7 2.2 4.3 3.6 7.3 3.6 4.1 0 7.6-2.7 8.7-6.5.4-1.4 1.5-2.5 3-2.5h5.2c1.4 0 2.6 1.2 2.4 2.6-1.3 9.4-9.4 16.7-19.3 16.7-1.6 0-3.2-.2-4.8-.6-1.1-.3-2.4-.2-3.4.4-2.8 1.4-6 2.4-8.7 2.8-1.3.2-2.4-.8-2.6-2v-.7l1.8-9c.2-.8 0-1.7-.3-2.5-.6-1.6-1.1-3.3-1.3-5z" fill-rule="evenodd" clip-rule="evenodd" fill="#b5b1bc"/><path d="M0 5.1C0 2.3 2.3 0 5.2 0c2.9 0 5.2 2.3 5.2 5.1s-2.3 5.1-5.2 5.1C2.3 10.3 0 8 0 5.1zm31.2 0c0-2.8 2.3-5.1 5.2-5.1 2.9 0 5.2 2.3 5.2 5.1s-2.3 5.1-5.2 5.1c-2.9.1-5.2-2.2-5.2-5.1zm22.9 5.7c0-1.3.2-2.4.6-3.3.5-.9 1.1-1.7 1.8-2.2.8-.6 1.6-1 2.7-1.3 1-.3 2.1-.4 3.3-.4 1.9 0 3.3.2 4.1.7.9.5 1.3 1.3 1.3 2.5 0 .5-.1.9-.3 1.3-.2.4-.4.7-.7.9l-1.5-.3c-.5-.1-1.1-.1-1.8-.1-1.1 0-1.9.2-2.5.6-.6.3-.9 1-.9 1.9v1.2h6.2c.2.3.3.6.4 1 .2.4.2.8.2 1.3 0 .9-.2 1.5-.6 1.9-.4.4-.9.6-1.6.6h-4.4V29c-.3.1-.7.1-1.2.2s-1.1.1-1.7.1c-.6 0-1.1 0-1.5-.1-.4-.1-.8-.2-1.1-.4-.3-.2-.5-.5-.7-.9-.2-.4-.2-.9-.2-1.5V10.8zM76 29c-.3.1-.7.1-1.2.2s-1.1.1-1.7.1c-.6 0-1.1 0-1.5-.1-.4-.1-.8-.2-1.1-.4-.3-.2-.5-.5-.7-.9-.2-.4-.2-.9-.2-1.5V15.1c0-.6.1-1.1.3-1.5.2-.4.5-.8.9-1.1.4-.3.9-.6 1.5-.9.6-.3 1.3-.5 1.9-.7.7-.2 1.4-.3 2.1-.4.7-.1 1.5-.2 2.2-.2 1.2 0 2.2.2 2.9.7.7.4 1.1 1.2 1.1 2.2 0 .3-.1.7-.2 1-.1.3-.2.6-.4.9-.5 0-1.1 0-1.6.1-.6.1-1.1.1-1.6.2l-1.5.3c-.5.1-.8.2-1.2.4V29zm18.2.6c-1.5 0-2.9-.2-4.2-.6-1.3-.4-2.4-1-3.3-1.9-.9-.8-1.7-1.9-2.2-3.1-.5-1.2-.8-2.7-.8-4.4 0-1.6.3-3.1.8-4.2.6-1.2 1.3-2.2 2.2-2.9.9-.8 1.9-1.3 3-1.7 1.1-.4 2.3-.6 3.5-.6 1.3 0 2.6.2 3.6.6 1.1.4 2.1.9 2.8 1.6.8.7 1.4 1.5 1.9 2.5s.7 2 .7 3.2c0 .8-.2 1.5-.7 1.9-.5.4-1.2.7-2 .9l-9.4 1.4c.3.8.8 1.4 1.7 1.9.9.4 1.8.6 3 .6 1 0 2-.1 2.9-.4.9-.3 1.7-.6 2.3-.9.4.2.7.6 1 1 .3.4.4.9.4 1.4 0 1.1-.5 2-1.6 2.5-.8.6-1.7.9-2.8 1-1 .2-1.9.2-2.8.2zm-1.1-14.7c-.6 0-1.1.1-1.6.3-.4.2-.8.5-1.1.8-.3.3-.5.6-.6 1-.1.4-.2.8-.2 1.2l6.5-1c-.1-.5-.4-1-.8-1.5-.5-.5-1.2-.8-2.2-.8zM115 29.6c-1.5 0-2.9-.2-4.2-.6-1.3-.4-2.4-1-3.3-1.9-.9-.8-1.7-1.9-2.2-3.1-.5-1.2-.8-2.7-.8-4.4 0-1.6.3-3.1.8-4.2.6-1.2 1.3-2.2 2.2-2.9.9-.8 1.9-1.3 3-1.7 1.1-.4 2.3-.6 3.5-.6 1.3 0 2.6.2 3.6.6 1.1.4 2.1.9 2.8 1.6.8.7 1.4 1.5 1.9 2.5s.7 2 .7 3.2c0 .8-.2 1.5-.7 1.9-.5.4-1.2.7-2 .9l-9.4 1.4c.3.8.8 1.4 1.7 1.9.9.4 1.8.6 3 .6 1 0 2-.1 2.9-.4.9-.3 1.7-.6 2.3-.9.4.2.7.6 1 1 .3.4.4.9.4 1.4 0 1.1-.5 2-1.6 2.5-.8.4-1.7.7-2.7.9-1 .3-2 .3-2.9.3zm-1-14.7c-.6 0-1.1.1-1.6.3-.4.2-.8.5-1.1.8-.3.3-.5.6-.6 1-.1.4-.2.8-.2 1.2l6.5-1c-.1-.5-.4-1-.8-1.5-.6-.5-1.3-.8-2.2-.8zm24.4 13.7c-.4.3-.9.5-1.6.7-.7.2-1.5.3-2.3.3-1 0-1.8-.1-2.6-.4-.7-.2-1.2-.6-1.5-1.2-.2-.4-.5-1-.8-1.8-.3-.8-.6-1.6-1-2.5-.4-.9-.7-2-1.1-3-.4-1.1-.7-2.1-1.1-3.2-.3-1-.6-2.1-.9-3-.3-1-.5-1.8-.7-2.6.4-.3.8-.6 1.4-.9.6-.3 1.3-.4 2-.4.9 0 1.6.2 2.2.6.6.3 1 1 1.3 2l1.5 5.7c.3 1.1.5 2.1.8 3.1.3.9.4 1.6.6 2.1h.2c.5-1.8 1-3.9 1.5-6.1.5-2.2 1-4.5 1.4-6.6.4-.2.9-.4 1.4-.5.6-.1 1.1-.2 1.6-.2.9 0 1.6.2 2.2.6.6.4.9 1 .9 1.9 0 .4-.1 1-.3 1.8-.2.7-.4 1.6-.7 2.6-.3.9-.6 2-1 3-.4 1.1-.8 2.1-1.2 3.1-.4 1-.8 2-1.2 2.9-.3.7-.7 1.4-1 2zm15.9-3.6c.4 0 .9 0 1.4-.1.5-.1.9-.2 1.2-.4v-3l-2.7.2c-.7.1-1.3.2-1.7.4-.5.2-.7.6-.7 1.1 0 .5.2.9.6 1.2.3.4 1 .6 1.9.6zm-.3-14.7c1.4 0 2.6.1 3.7.4 1.1.3 2.1.7 2.9 1.3.8.5 1.4 1.3 1.9 2.1.4.8.6 1.9.6 3v8.4c0 .6-.2 1.2-.6 1.6-.4.4-.8.7-1.3 1-1.6 1-4 1.5-6.9 1.5-1.3 0-2.6-.1-3.6-.4-1.1-.2-2-.6-2.8-1.1-.8-.5-1.4-1.1-1.8-1.9-.4-.8-.6-1.7-.6-2.7 0-1.7.5-3 1.6-4 1-.9 2.6-1.5 4.8-1.7l5-.5V17c0-.7-.3-1.2-1-1.5-.6-.3-1.6-.5-2.8-.5-1 0-1.9.1-2.8.3s-1.7.4-2.5.7c-.3-.2-.6-.6-.8-1-.2-.5-.3-1-.3-1.5 0-.6.2-1.2.5-1.5.3-.4.8-.7 1.5-1 .7-.3 1.6-.5 2.6-.6.9-.1 1.8-.1 2.7-.1zm23.5 5c-.6 0-1.2.1-1.8.3-.6.2-1.1.5-1.5.9-.4.4-.7.8-1 1.4-.3.6-.4 1.2-.4 2 0 1.5.4 2.7 1.3 3.5.9.8 2 1.2 3.3 1.2.8 0 1.4-.1 2-.3.6-.2 1.1-.4 1.5-.6.5.3.9.7 1.1 1.2.3.4.4.9.4 1.5 0 1-.5 1.8-1.5 2.4-1 .5-2.4.8-4.1.8-1.6 0-3-.2-4.3-.7-1.3-.5-2.4-1.1-3.3-1.9-.9-.8-1.6-1.9-2.1-3-.5-1.2-.8-2.5-.8-3.9 0-1.6.3-3.1.8-4.3.6-1.2 1.3-2.3 2.2-3.1.9-.8 2-1.4 3.2-1.8 1.2-.4 2.5-.6 3.9-.6 1.8 0 3.2.3 4.2 1 1 .6 1.5 1.5 1.5 2.5 0 .5-.1.9-.3 1.3-.2.4-.5.7-.8 1-.4-.2-.9-.4-1.6-.6-.6-.1-1.2-.2-1.9-.2z" fill="#b5b1bc"/></svg>