<svg width="183" height="36" fill="none" xmlns="http://www.w3.org/2000/svg"><path fill-rule="evenodd" clip-rule="evenodd" d="M1.472 16.682c-.19-1.405.993-2.56 2.429-2.56h5.2c1.436 0 2.563 1.172 2.967 2.532a8.898 8.898 0 001.223 2.543 3.789 3.789 0 01.192.266 9.125 9.125 0 007.318 3.644c4.135 0 7.626-2.723 8.734-6.453.404-1.36 1.53-2.533 2.967-2.533h5.2c1.436 0 2.618 1.156 2.429 2.561-1.269 9.424-9.44 16.694-19.33 16.694-1.64 0-3.235-.2-4.757-.577a4.904 4.904 0 00-3.399.367c-2.84 1.446-5.991 2.43-8.744 2.813-1.295.18-2.382-.773-2.565-2.016-.037-.246-.003-.496.045-.74l1.793-9.026c.169-.848.03-1.722-.313-2.517a18.935 18.935 0 01-1.39-4.998z" fill="#7B41E7"/><path d="M0 5.135C0 2.299 2.328 0 5.2 0c2.872 0 5.2 2.299 5.2 5.135s-2.328 5.134-5.2 5.134C2.328 10.27 0 7.971 0 5.135zm31.201 0c0-2.836 2.328-5.135 5.2-5.135 2.872 0 5.2 2.299 5.2 5.135s-2.328 5.134-5.2 5.134c-2.872 0-5.2-2.298-5.2-5.134z" fill="#5BD64D"/><path d="M54.05 10.83c0-1.275.216-2.362.646-3.262.456-.924 1.063-1.674 1.822-2.248.76-.6 1.645-1.037 2.657-1.312a12.848 12.848 0 013.302-.412c1.873 0 3.252.25 4.137.75.886.474 1.329 1.299 1.329 2.473 0 .5-.114.95-.342 1.35-.202.399-.43.699-.683.899-.48-.125-.987-.225-1.518-.3a9.308 9.308 0 00-1.784-.15c-1.088 0-1.936.187-2.543.562-.608.35-.911.974-.911 1.874v1.2h6.225c.151.274.29.624.417 1.049.152.4.228.85.228 1.349 0 .874-.203 1.511-.608 1.911-.379.375-.898.562-1.556.562h-4.365v11.881c-.253.075-.658.15-1.214.225-.532.075-1.088.112-1.67.112a9.386 9.386 0 01-1.519-.112 2.556 2.556 0 01-1.1-.45 2.336 2.336 0 01-.721-.9c-.152-.399-.228-.911-.228-1.536V10.83zm21.945 18.176c-.253.075-.657.15-1.214.225-.532.075-1.088.112-1.67.112a9.386 9.386 0 01-1.519-.112 2.556 2.556 0 01-1.1-.45 2.336 2.336 0 01-.721-.9c-.152-.399-.228-.911-.228-1.536V15.102c0-.575.101-1.062.303-1.462.228-.425.545-.8.95-1.124a6.367 6.367 0 011.48-.862 14.696 14.696 0 014.061-1.162 13.09 13.09 0 012.201-.188c1.215 0 2.177.238 2.885.712.709.45 1.063 1.2 1.063 2.25 0 .349-.05.699-.152 1.049a4.819 4.819 0 01-.38.899 18.243 18.243 0 00-3.264.3c-.531.1-1.037.212-1.518.337-.455.1-.848.225-1.177.375v12.78zm18.203.637c-1.492 0-2.884-.2-4.175-.6a9.924 9.924 0 01-3.34-1.873c-.936-.825-1.683-1.862-2.24-3.111-.53-1.25-.796-2.711-.796-4.385 0-1.65.265-3.06.797-4.235.556-1.2 1.278-2.174 2.163-2.923a8.23 8.23 0 013.037-1.687 11.1 11.1 0 013.492-.562c1.34 0 2.555.2 3.644.6 1.113.4 2.062.949 2.846 1.649a7.03 7.03 0 011.86 2.51c.456.975.683 2.037.683 3.186 0 .85-.24 1.5-.721 1.95-.481.449-1.151.736-2.012.861l-9.375 1.387c.279.824.848 1.45 1.708 1.874.86.4 1.847.6 2.96.6a11.01 11.01 0 002.924-.375c.936-.275 1.695-.587 2.277-.937.405.25.746.6 1.025 1.05.278.449.417.924.417 1.423 0 1.125-.531 1.962-1.594 2.511-.81.425-1.72.712-2.733.862a19.49 19.49 0 01-2.847.225zm-1.062-14.729c-.608 0-1.139.1-1.594.3-.43.2-.785.462-1.063.787-.279.3-.494.65-.645 1.05a4.503 4.503 0 00-.228 1.161l6.49-1.05c-.076-.499-.354-.998-.835-1.498-.48-.5-1.19-.75-2.125-.75zm21.894 14.729c-1.493 0-2.885-.2-4.175-.6a9.92 9.92 0 01-3.34-1.873c-.937-.825-1.683-1.862-2.24-3.111-.531-1.25-.797-2.711-.797-4.385 0-1.65.266-3.06.797-4.235.557-1.2 1.278-2.174 2.164-2.923a8.22 8.22 0 013.036-1.687 11.103 11.103 0 013.492-.562c1.341 0 2.556.2 3.644.6 1.113.4 2.062.949 2.847 1.649a7.052 7.052 0 011.86 2.51c.455.975.683 2.037.683 3.186 0 .85-.241 1.5-.721 1.95-.481.449-1.152.736-2.012.861l-9.375 1.387c.278.824.847 1.45 1.708 1.874.86.4 1.847.6 2.96.6 1.038 0 2.012-.125 2.923-.375.936-.275 1.695-.587 2.277-.937.405.25.747.6 1.025 1.05.278.449.418.924.418 1.423 0 1.125-.532 1.962-1.595 2.511-.809.425-1.72.712-2.732.862-1.013.15-1.961.225-2.847.225zm-1.063-14.729c-.607 0-1.139.1-1.594.3-.43.2-.784.462-1.063.787-.278.3-.493.65-.645 1.05a4.516 4.516 0 00-.228 1.161l6.491-1.05c-.076-.499-.355-.998-.835-1.498-.481-.5-1.19-.75-2.126-.75z" fill="#7B41E7"/><path d="M138.443 28.555c-.354.275-.873.5-1.556.675-.683.175-1.455.262-2.316.262-.986 0-1.847-.125-2.581-.375-.708-.25-1.202-.65-1.48-1.199a26.032 26.032 0 01-.835-1.761c-.304-.775-.633-1.625-.987-2.549a191.14 191.14 0 01-1.101-3.036 244.716 244.716 0 01-1.1-3.185c-.329-1.05-.633-2.062-.911-3.036a57.67 57.67 0 01-.683-2.586c.354-.35.822-.65 1.404-.9a4.728 4.728 0 011.974-.412c.885 0 1.607.187 2.163.562.582.35 1.012 1.025 1.291 2.024l1.48 5.734c.278 1.125.544 2.149.797 3.073.253.9.443 1.6.569 2.1h.19c.481-1.85.987-3.899 1.518-6.147.532-2.249 1.013-4.46 1.443-6.634.43-.225.911-.4 1.442-.525a7.287 7.287 0 011.594-.187c.886 0 1.632.187 2.24.562.607.375.911 1.025.911 1.95 0 .399-.102.986-.304 1.76a38.64 38.64 0 01-.721 2.587 42.54 42.54 0 01-1.025 3.035 92.007 92.007 0 01-1.177 3.148 66.165 66.165 0 01-1.214 2.886c-.38.875-.721 1.6-1.025 2.174zm15.872-3.56c.43 0 .898-.038 1.404-.113.531-.1.924-.225 1.177-.375V21.51l-2.733.225c-.709.05-1.291.2-1.746.45-.456.25-.683.624-.683 1.124 0 .5.189.912.569 1.237.405.3 1.075.45 2.012.45zm-.304-14.73c1.366 0 2.606.138 3.72.413 1.138.275 2.1.7 2.884 1.274.81.55 1.43 1.262 1.86 2.136.43.85.645 1.862.645 3.036v8.395c0 .65-.189 1.187-.569 1.612-.354.4-.784.75-1.29 1.05-1.645.974-3.96 1.461-6.946 1.461-1.341 0-2.556-.125-3.644-.375-1.063-.25-1.987-.624-2.771-1.124a5.404 5.404 0 01-1.784-1.912c-.405-.774-.607-1.674-.607-2.698 0-1.724.519-3.048 1.556-3.973 1.037-.924 2.644-1.499 4.82-1.724l4.973-.524v-.263c0-.724-.329-1.237-.987-1.536-.633-.325-1.556-.488-2.771-.488-.962 0-1.898.1-2.809.3-.911.2-1.733.45-2.467.75-.329-.225-.607-.562-.835-1.012a3.341 3.341 0 01-.342-1.462c0-.65.152-1.162.456-1.536.329-.4.822-.737 1.48-1.012.734-.275 1.594-.475 2.581-.6a23.314 23.314 0 012.847-.187zm23.455 5.023c-.633 0-1.24.1-1.822.3-.557.2-1.05.5-1.48.9a4.23 4.23 0 00-.987 1.423c-.253.575-.38 1.25-.38 2.024 0 1.55.443 2.711 1.329 3.486.911.774 2.011 1.161 3.302 1.161.759 0 1.417-.087 1.974-.262.556-.175 1.05-.362 1.48-.562.506.35.886.737 1.139 1.162.253.4.379.887.379 1.461 0 1.025-.493 1.824-1.48 2.399-.987.55-2.353.825-4.099.825-1.595 0-3.037-.225-4.327-.675-1.291-.475-2.404-1.124-3.341-1.949a8.946 8.946 0 01-2.125-3.036c-.506-1.174-.759-2.473-.759-3.898 0-1.649.265-3.085.797-4.31.557-1.249 1.303-2.273 2.239-3.073a9.476 9.476 0 013.227-1.799c1.239-.4 2.543-.6 3.909-.6 1.822 0 3.226.325 4.213.975.987.65 1.48 1.487 1.48 2.511 0 .475-.113.925-.341 1.35-.228.4-.494.749-.797 1.049-.43-.2-.949-.387-1.556-.562-.608-.2-1.266-.3-1.974-.3z" fill="#5BD64D"/></svg>