<svg version="1.1" id="Слой_1" xmlns="http://www.w3.org/2000/svg" x="0" y="0" viewBox="0 0 160 32" xml:space="preserve"><path d="M6.3 14.8c-.2-1.2.9-2.3 2.1-2.3H13c1.3 0 2.2 1 2.6 2.3.2.8.6 1.6 1.1 2.3 0 .1.1.1.1.2l.1.1c1.5 2 3.8 3.2 6.4 3.2 3.6 0 6.7-2.4 7.7-5.7.4-1.2 1.3-2.3 2.6-2.3h4.6c1.3 0 2.3 1 2.1 2.3-1.1 8.4-8.3 14.8-17 14.8-1.4 0-2.8-.2-4.2-.5-1-.3-2.1-.1-3 .3-2.5 1.3-5.3 2.2-7.7 2.5-1.1.2-2.1-.7-2.2-1.8v-.7l1.6-8c.1-.8 0-1.5-.3-2.2-.6-1.4-1-2.9-1.2-4.5z" fill-rule="evenodd" clip-rule="evenodd" fill="#fcfcfd"/><path d="M5 4.6C5 2 7 0 9.5 0s4.6 2 4.6 4.6c0 2.5-2 4.6-4.6 4.6C7 9.1 5 7.1 5 4.6zm27.4 0c0-2.5 2-4.6 4.6-4.6 2.5 0 4.6 2 4.6 4.6 0 2.5-2 4.6-4.6 4.6-2.6-.1-4.6-2.1-4.6-4.6z" fill="#5bd64d"/><path d="M66.2 25.7c-.3.3-.8.5-1.5.7-.7.2-1.4.3-2.2.3-.9 0-1.8-.1-2.5-.4-.7-.2-1.1-.6-1.4-1.2-.2-.4-.5-1-.8-1.7-.3-.8-.6-1.6-.9-2.5-.3-.9-.7-1.9-1.1-3-.4-1.1-.7-2.1-1.1-3.1l-.9-3c-.3-1-.5-1.8-.7-2.5.3-.3.8-.6 1.3-.9.6-.3 1.2-.4 1.9-.4.8 0 1.5.2 2.1.6.6.3 1 1 1.2 2l1.4 5.6c.3 1.1.5 2.1.8 3 .2.9.4 1.6.5 2.1h.2c.5-1.8.9-3.8 1.5-6 .5-2.2 1-4.4 1.4-6.5.4-.2.9-.4 1.4-.5.5-.1 1-.2 1.5-.2.8 0 1.6.2 2.1.6.6.4.9 1 .9 1.9 0 .4-.1 1-.3 1.7-.2.7-.4 1.6-.7 2.5-.3.9-.6 1.9-1 3s-.7 2.1-1.1 3.1c-.4 1-.8 2-1.2 2.8-.2.7-.5 1.5-.8 2zM76.5 3.3c0-.9.3-1.7.9-2.4.6-.6 1.5-1 2.5-1s1.8.3 2.4 1c.6.6.9 1.4.9 2.4S83 5 82.4 5.7c-.6.6-1.4 1-2.4 1s-1.8-.3-2.5-1c-.6-.7-1-1.4-1-2.4zM83 26.2c-.3 0-.7.1-1.2.2s-1 .1-1.6.1c-.5 0-1 0-1.5-.1-.4-.1-.8-.2-1.1-.4-.3-.2-.5-.5-.7-.9-.1-.4-.2-.9-.2-1.5v-15c.3 0 .7-.1 1.2-.2s1.1-.1 1.6-.1 1 0 1.4.1c.4.1.8.2 1.1.4.3.2.5.5.7.9.2.4.3.9.3 1.5v15zm18.3-.5c-.3.3-.8.5-1.5.7-.7.2-1.4.3-2.2.3-.9 0-1.8-.1-2.5-.4-.7-.2-1.1-.6-1.4-1.2-.2-.4-.5-1-.8-1.7-.3-.8-.6-1.6-.9-2.5-.3-.9-.7-1.9-1.1-3-.4-1.1-.7-2.1-1.1-3.1l-.9-3c-.3-1-.5-1.8-.7-2.5.3-.3.8-.6 1.3-.9.6-.3 1.2-.4 1.9-.4.8 0 1.5.2 2.1.6.6.3 1 1 1.2 2l1.4 5.6c.3 1.1.5 2.1.8 3 .2.9.4 1.6.5 2.1h.2c.5-1.8.9-3.8 1.5-6 .5-2.2 1-4.4 1.4-6.5.4-.2.9-.4 1.4-.5.5-.1 1-.2 1.5-.2.8 0 1.6.2 2.1.6.6.4.9 1 .9 1.9 0 .4-.1 1-.3 1.7-.2.7-.4 1.6-.7 2.5-.3.9-.6 1.9-1 3s-.7 2.1-1.1 3.1c-.4 1-.8 2-1.2 2.8-.2.7-.5 1.5-.8 2zm10.4-22.4c0-.9.3-1.7.9-2.4.6-.6 1.5-1 2.5-1s1.8.3 2.4 1c.6.6.9 1.4.9 2.4s-.3 1.7-.9 2.4c-.6.6-1.4 1-2.4 1s-1.8-.3-2.5-1c-.6-.7-.9-1.4-.9-2.4zm6.4 22.9c-.3 0-.7.1-1.2.2s-1 .1-1.6.1c-.5 0-1 0-1.5-.1-.4-.1-.8-.2-1.1-.4-.3-.2-.5-.5-.7-.9-.1-.4-.2-.9-.2-1.5v-15c.3 0 .7-.1 1.2-.2s1.1-.1 1.6-.1 1 0 1.4.1c.4.1.8.2 1.1.4.3.2.5.5.7.9.2.4.3.9.3 1.5v15zm5.7-9c0-1.6.2-3 .7-4.2.5-1.2 1.1-2.2 2-3 .9-.8 1.9-1.4 3-1.7 1.2-.4 2.4-.6 3.7-.6.5 0 1 0 1.4.1.5.1.8.2 1.1.3v-6c.2-.1.6-.1 1.2-.2.5-.1 1.1-.1 1.6-.1s1 0 1.4.1c.4.1.8.2 1.1.4.3.2.5.5.7.9.1.4.2.9.2 1.5v17.5c0 1.2-.5 2.1-1.6 2.8-.7.5-1.6.9-2.7 1.2-1.1.4-2.4.6-3.8.6-1.6 0-3-.2-4.2-.7-1.2-.4-2.3-1.1-3.2-1.9-.8-.8-1.5-1.8-2-3-.3-1.2-.6-2.5-.6-4zm10.3-4.6c-1.3 0-2.3.4-3 1.1-.7.8-1.1 1.9-1.1 3.5 0 1.5.3 2.7 1 3.5.7.8 1.6 1.1 2.8 1.1.4 0 .8-.1 1.2-.2.4-.1.6-.3.8-.5V13c-.4-.2-1-.4-1.7-.4zm14.2-9.3c0-.9.3-1.7.9-2.4.6-.6 1.5-1 2.5-1s1.8.3 2.4 1c.6.6.9 1.4.9 2.4s-.3 1.7-.9 2.4c-.6.6-1.4 1-2.4 1s-1.8-.3-2.5-1c-.6-.7-.9-1.4-.9-2.4zm6.4 22.9c-.3 0-.7.1-1.2.2s-1 .1-1.6.1c-.5 0-1 0-1.5-.1-.4-.1-.8-.2-1.1-.4s-.5-.5-.7-.9c-.1-.4-.2-.9-.2-1.5v-15c.3 0 .7-.1 1.2-.2s1.1-.1 1.6-.1 1 0 1.4.1c.4.1.8.2 1.1.4.3.2.5.5.7.9.2.4.3.9.3 1.5v15z" fill="#fcfcfd"/></svg>