<svg version="1.1" id="Слой_1" xmlns="http://www.w3.org/2000/svg" x="0" y="0" viewBox="0 0 183 36" xml:space="preserve"><path d="M8.9 16.7c-.2-1.4 1-2.5 2.4-2.5h5.1c1.4 0 2.5 1.2 2.9 2.5.3.9.7 1.8 1.2 2.5 0 .1.1.1.1.2 0 0 0 .1.1.1 1.6 2.2 4.2 3.6 7.2 3.6 4.1 0 7.5-2.7 8.6-6.4.4-1.4 1.5-2.5 2.9-2.5h5.1c1.4 0 2.6 1.2 2.4 2.5-1.2 9.4-9.3 16.6-19 16.6-1.6 0-3.2-.2-4.7-.6-1.1-.3-2.3-.2-3.3.4-2.8 1.4-5.9 2.4-8.6 2.8-1.3.2-2.3-.8-2.5-2v-.7l1.8-9c.2-.8 0-1.7-.3-2.5-.7-1.6-1.1-3.3-1.4-5z" fill-rule="evenodd" clip-rule="evenodd" fill="#b5b1bc"/><path d="M7.5 5.2C7.5 2.4 9.8.1 12.6.1s5.1 2.3 5.1 5.1-2.3 5.1-5.1 5.1S7.5 8 7.5 5.2zm30.6 0c0-2.8 2.3-5.1 5.1-5.1s5.1 2.3 5.1 5.1-2.3 5.1-5.1 5.1-5.1-2.3-5.1-5.1zM76 28.9c-.4.3-.9.6-1.7.7-.7.2-1.6.3-2.5.3-1.1 0-2-.1-2.8-.4-.8-.3-1.3-.7-1.6-1.3-.2-.5-.5-1.1-.9-1.9-.3-.9-.7-1.8-1.1-2.8-.4-1-.8-2.2-1.2-3.3-.4-1.2-.8-2.4-1.2-3.5-.4-1.2-.7-2.3-1-3.3-.3-1.1-.5-2-.7-2.8.4-.4.9-.7 1.5-1 .9-.5 1.6-.6 2.3-.6.9 0 1.7.2 2.3.6.6.4 1.1 1.1 1.4 2.2l1.6 6.3c.3 1.2.6 2.4.9 3.4.3 1 .5 1.8.6 2.3h.2c.5-2 1.1-4.3 1.6-6.8.6-2.5 1.1-4.9 1.5-7.3l1.5-.6C77.4 9 78 9 78.5 9c.9 0 1.7.2 2.4.6.7.4 1 1.1 1 2.1 0 .4-.1 1.1-.3 1.9-.2.8-.4 1.8-.8 2.8-.3 1-.7 2.2-1.1 3.3-.4 1.2-.8 2.3-1.3 3.5-.4 1.1-.9 2.2-1.3 3.2-.4 1.1-.8 1.9-1.1 2.5zM87.6 3.8c0-1 .3-1.9 1-2.6.7-.7 1.6-1.1 2.8-1.1 1.1 0 2 .4 2.7 1.1.7.7 1.1 1.6 1.1 2.6s-.4 1.9-1.1 2.6c-.7.7-1.6 1.1-2.7 1.1s-2.1-.4-2.8-1.1c-.6-.7-1-1.6-1-2.6zm7.3 25.6c-.3.1-.7.1-1.3.2-.6.1-1.2.2-1.7.2-.6 0-1.1 0-1.6-.1s-.9-.2-1.2-.5c-.3-.2-.6-.6-.8-1-.2-.4-.2-1-.2-1.7V9.7c.3-.1.7-.1 1.3-.2.6-.1 1.2-.2 1.8-.2.6 0 1.1 0 1.6.1s.9.2 1.2.5c.3.2.6.6.7 1 .2.4.3 1 .3 1.7v16.8zm20.4-.5c-.4.3-.9.6-1.7.7-.7.2-1.6.3-2.5.3-1.1 0-2-.1-2.8-.4-.8-.3-1.3-.7-1.6-1.3-.2-.5-.5-1.1-.9-1.9-.3-.9-.7-1.8-1.1-2.8-.4-1-.8-2.2-1.2-3.3-.4-1.2-.8-2.4-1.2-3.5-.4-1.2-.7-2.3-1-3.3-.3-1.1-.5-2-.7-2.8.4-.4.9-.7 1.5-1 .7-.3 1.4-.5 2.1-.5.9 0 1.7.2 2.3.6.6.4 1.1 1.1 1.4 2.2l1.6 6.3c.3 1.2.6 2.4.9 3.4.3 1 .5 1.8.6 2.3h.2c.5-2 1.1-4.3 1.6-6.8s1.1-4.9 1.5-7.3l1.5-.6c.6-.1 1.2-.2 1.7-.2.9 0 1.7.2 2.4.6.7.4 1 1.1 1 2.1 0 .4-.1 1.1-.3 1.9-.2.8-.4 1.8-.8 2.8-.3 1-.7 2.2-1.1 3.3-.4 1.2-.8 2.3-1.3 3.5-.4 1.1-.9 2.2-1.3 3.2-.1 1.1-.4 1.9-.8 2.5zM127 3.8c0-1 .3-1.9 1-2.6.7-.7 1.6-1.1 2.8-1.1 1.1 0 2 .4 2.7 1.1.7.7 1.1 1.6 1.1 2.6s-.4 1.9-1.1 2.6c-.7.7-1.6 1.1-2.7 1.1s-2.1-.4-2.8-1.1c-.7-.7-1-1.6-1-2.6zm7.2 25.6c-.3.1-.7.1-1.3.2-.6.1-1.2.2-1.7.2-.6 0-1.1 0-1.6-.1s-.9-.2-1.2-.5c-.3-.2-.6-.6-.8-1-.2-.4-.2-1-.2-1.7V9.7c.3-.1.7-.1 1.3-.2.6-.1 1.2-.2 1.8-.2.6 0 1.1 0 1.6.1s.9.2 1.2.5c.3.2.6.6.7 1 .2.4.3 1 .3 1.7v16.8zm6.4-10c0-1.8.3-3.4.8-4.7.5-1.3 1.3-2.5 2.2-3.3 1-.9 2.1-1.5 3.4-1.9 1.3-.4 2.7-.7 4.2-.7.5 0 1.1.1 1.6.2s.9.2 1.3.3V2.6c.3-.1.7-.2 1.3-.2.6-.1 1.2-.2 1.8-.2.6 0 1.1 0 1.6.1s.9.2 1.2.5c.3.2.6.6.7 1 .2.4.2 1 .2 1.7V25c0 1.3-.6 2.3-1.8 3.1-.8.5-1.8 1-3 1.4-1.2.4-2.7.6-4.3.6-1.8 0-3.3-.2-4.8-.7-1.4-.5-2.6-1.2-3.5-2.1-.9-.9-1.7-2-2.2-3.3-.5-1.5-.7-3-.7-4.6zm11.5-5.2c-1.5 0-2.6.4-3.4 1.3-.8.9-1.2 2.1-1.2 3.9 0 1.7.4 3 1.1 3.9.7.9 1.8 1.3 3.2 1.3.5 0 .9-.1 1.3-.2.4-.2.7-.3.9-.5v-9.1c-.5-.4-1.1-.6-1.9-.6zm15.8-10.4c0-1 .3-1.9 1-2.6.7-.7 1.6-1.1 2.8-1.1 1.1 0 2 .4 2.7 1.1.7.7 1.1 1.6 1.1 2.6s-.4 1.9-1.1 2.6c-.7.7-1.6 1.1-2.7 1.1s-2.1-.4-2.8-1.1c-.6-.7-1-1.6-1-2.6zm7.3 25.6c-.3.1-.7.1-1.3.2-.6.1-1.2.2-1.7.2-.6 0-1.1 0-1.6-.1s-.9-.2-1.2-.5c-.3-.2-.6-.6-.8-1-.2-.4-.2-1-.2-1.7V9.7c.3-.1.7-.1 1.3-.2.6-.1 1.2-.2 1.8-.2.6 0 1.1 0 1.6.1s.9.2 1.2.5c.3.2.6.6.7 1 .2.4.3 1 .3 1.7v16.8z" fill="#b5b1bc"/></svg>