<svg width="16" height="16" fill="none" xmlns="http://www.w3.org/2000/svg"><path d="M10.56 2.563c.587-.699 1.006-1.631.88-2.563-.88.039-1.927.544-2.555 1.204-.544.582-1.047 1.553-.921 2.446 1.005.117 1.968-.388 2.596-1.087zm.88 1.32c-1.424-.077-2.639.738-3.309.738-.67 0-1.717-.699-2.848-.699-1.466.039-2.806.777-3.56 2.02-1.508 2.446-.419 6.057 1.089 8.038.712.97 1.592 2.058 2.722 2.019 1.09-.039 1.508-.66 2.807-.66 1.298 0 1.675.66 2.848.621 1.172-.039 1.926-.97 2.638-1.98.838-1.126 1.173-2.214 1.173-2.253-.042-.038-2.304-.815-2.304-3.223-.041-2.019 1.76-2.99 1.843-3.029-.963-1.398-2.555-1.553-3.1-1.592z" fill="#131215"/></svg>