<svg width="16" height="16" fill="none" xmlns="http://www.w3.org/2000/svg"><path d="M15.667 8.183c0-.585-.052-1.144-.15-1.683H8v3.083h4.33a3.709 3.709 0 01-1.607 2.484v2H13.3c1.505-1.393 2.367-3.452 2.367-5.884z" fill="#4285F4"/><path d="M10.724 12.066c-.717.484-1.64.767-2.722.767-2.087 0-3.858-1.406-4.493-3.303H.851v2.063A8.003 8.003 0 008.002 16c2.162 0 3.978-.711 5.3-1.935l-2.578-1.999z" fill="#34A853"/><path d="M3.259 8c0-.532.089-1.046.25-1.53V4.407H.851A7.96 7.96 0 000 8.001a7.97 7.97 0 00.851 3.593l2.658-2.062A4.825 4.825 0 013.26 8z" fill="#FABB05"/><path d="M8.002 3.167c1.18 0 2.237.406 3.07 1.2l2.285-2.282C11.97.793 10.16 0 8.002 0a8.004 8.004 0 00-7.15 4.407L3.508 6.47c.635-1.897 2.406-3.303 4.493-3.303z" fill="#E94235"/></svg>