<svg width="16" height="16" fill="none" xmlns="http://www.w3.org/2000/svg"><path d="M12.083 1H3.917A2.917 2.917 0 001 3.917v8.166A2.917 2.917 0 003.917 15h8.166A2.917 2.917 0 0015 12.083V3.917A2.917 2.917 0 0012.083 1zM5.667 12.083h-1.75V5.667h1.75v6.416zm-.875-7.156c-.564 0-1.021-.46-1.021-1.029 0-.568.457-1.029 1.02-1.029.564 0 1.021.46 1.021 1.029 0 .568-.456 1.029-1.02 1.029zm7.875 7.156h-1.75V8.814c0-1.964-2.334-1.816-2.334 0v3.27h-1.75V5.666h1.75v1.03c.815-1.51 4.084-1.62 4.084 1.444v3.942z" fill="#2F73AC"/></svg>